<svg width="1240" height="1024" viewBox="0 0 1240 1024" fill="none" xmlns="http://www.w3.org/2000/svg">
<g opacity="0.25">
<g clip-path="url(#clip0_498_1417)">
<mask id="mask0_498_1417" style="mask-type:luminance" maskUnits="userSpaceOnUse" x="0" y="0" width="1240" height="1024">
<path d="M1240 0H0V1024H1240V0Z" fill="white"/>
</mask>
<g mask="url(#mask0_498_1417)">
<path d="M1240 0H0V1024H1240V0Z" fill="#030A06"/>
<mask id="mask1_498_1417" style="mask-type:alpha" maskUnits="userSpaceOnUse" x="-285" y="-238" width="1685" height="1440">
<path d="M652.86 303.828C652.86 451.088 569.018 570.465 465.594 570.465C362.169 570.465 -284.014 53.9679 -284.014 -93.292C-284.014 -240.552 644.426 -37.8213 747.85 -37.8213C851.274 -37.8213 652.86 156.568 652.86 303.828Z" fill="url(#paint0_linear_498_1417)"/>
<path d="M725.594 934.853C725.594 1082.11 641.752 1201.49 538.329 1201.49C434.904 1201.49 -141.258 1167.17 -141.258 1019.91C-141.258 872.645 -98.669 523.821 4.75561 523.821C108.18 523.821 725.594 787.593 725.594 934.853Z" fill="url(#paint1_radial_498_1417)"/>
<path d="M938.024 304.232C1217.08 596.92 1088.18 449.832 1327.86 442.422C1365.46 450.833 1429.29 451.233 1383.81 385.542C1326.97 303.427 1345.29 245.429 1274.25 155.965C1203.2 66.5011 1159.93 -24.3927 1052.68 -166.683C945.421 -308.973 937.172 -191.679 816.253 -202.798C695.336 -213.917 750.486 -196.26 583.651 10.1973C416.816 216.654 658.968 11.5432 938.024 304.232Z" fill="#D9D9D9"/>
<path d="M774.453 705.566C304.244 763.974 531.147 745.947 338.416 991.119C300.371 1022.37 247.108 1085.87 338.416 1089.91C452.551 1094.96 484.674 1156.97 616.578 1153.37C748.483 1149.76 858.517 1175 1063.55 1175C1268.59 1175 1179.74 1078.37 1289.09 965.882C1398.44 853.39 1338.29 895.214 1308.23 572.883C1278.15 250.552 1244.66 647.156 774.453 705.566Z" fill="#D9D9D9"/>
</mask>
<g mask="url(#mask1_498_1417)">
<path d="M-27.8105 609.548H1273.82" stroke="white" stroke-opacity="0.09" stroke-width="1.2607"/>
<path d="M-27.8105 932.286H1273.82" stroke="white" stroke-opacity="0.09" stroke-width="1.2607"/>
<path d="M-27.8105 286.81H1273.82" stroke="white" stroke-opacity="0.09" stroke-width="1.2607"/>
<path d="M-27.8105 448.178H1273.82" stroke="white" stroke-opacity="0.09" stroke-width="1.2607"/>
<path d="M-27.8105 770.916H1273.82" stroke="white" stroke-opacity="0.09" stroke-width="1.2607"/>
<path d="M-27.8105 125.439H1273.82" stroke="white" stroke-opacity="0.09" stroke-width="1.2607"/>
<path d="M-27.8105 528.863H1273.82" stroke="white" stroke-opacity="0.09" stroke-width="1.2607"/>
<path d="M-27.8105 851.601H1273.82" stroke="white" stroke-opacity="0.09" stroke-width="1.2607"/>
<path d="M-27.8105 206.125H1273.82" stroke="white" stroke-opacity="0.09" stroke-width="1.2607"/>
<path d="M-27.8105 1012.97H1273.82" stroke="white" stroke-opacity="0.09" stroke-width="1.2607"/>
<path d="M-27.8105 367.493H1273.82" stroke="white" stroke-opacity="0.09" stroke-width="1.2607"/>
<path d="M-27.8105 690.233H1273.82" stroke="white" stroke-opacity="0.09" stroke-width="1.2607"/>
<path d="M-27.8105 44.7544H1273.82" stroke="white" stroke-opacity="0.09" stroke-width="1.2607"/>
<path d="M12.8984 -64.2951V1103.11" stroke="white" stroke-opacity="0.09" stroke-width="1.2607"/>
<path d="M568.73 -64.2951V1103.11" stroke="white" stroke-opacity="0.09" stroke-width="1.2607"/>
<path d="M290.814 -64.2953V1103.11" stroke="white" stroke-opacity="0.09" stroke-width="1.2607"/>
<path d="M846.642 -64.2951L846.641 1103.11" stroke="white" stroke-opacity="0.09" stroke-width="1.2607"/>
<path d="M1124.56 -64.2951V1103.11" stroke="white" stroke-opacity="0.09" stroke-width="1.2607"/>
<path d="M151.855 -64.2951V1103.11" stroke="white" stroke-opacity="0.09" stroke-width="1.2607"/>
<path d="M707.684 -64.2951V1103.11" stroke="white" stroke-opacity="0.09" stroke-width="1.2607"/>
<path d="M429.771 -64.2951V1103.11" stroke="white" stroke-opacity="0.09" stroke-width="1.2607"/>
<path d="M985.602 -64.2953V1103.11" stroke="white" stroke-opacity="0.09" stroke-width="1.2607"/>
<path d="M82.3789 -64.2951V1103.11" stroke="white" stroke-opacity="0.09" stroke-width="1.2607"/>
<path d="M638.206 -64.2953L638.205 1103.11" stroke="white" stroke-opacity="0.09" stroke-width="1.2607"/>
<path d="M360.291 -64.2951V1103.11" stroke="white" stroke-opacity="0.09" stroke-width="1.2607"/>
<path d="M916.119 -64.2951V1103.11" stroke="white" stroke-opacity="0.09" stroke-width="1.2607"/>
<path d="M1194.03 -64.2951V1103.11" stroke="white" stroke-opacity="0.09" stroke-width="1.2607"/>
<path d="M221.336 -64.2951V1103.11" stroke="white" stroke-opacity="0.09" stroke-width="1.2607"/>
<path d="M777.164 -64.2951V1103.11" stroke="white" stroke-opacity="0.09" stroke-width="1.2607"/>
<path d="M499.248 -64.2951V1103.11" stroke="white" stroke-opacity="0.09" stroke-width="1.2607"/>
<path d="M1055.08 -64.2951V1103.11" stroke="white" stroke-opacity="0.09" stroke-width="1.2607"/>
<g opacity="0.7">
<path d="M776.816 770.859H707.732V851.085H776.816V770.859Z" fill="#24613D" fill-opacity="0.36"/>
<path d="M429.425 770.859H360.342V851.085H429.425V770.859Z" fill="#24613D" fill-opacity="0.25"/>
<path d="M1055.12 206.983H986.041V286.063H1055.12V206.983Z" fill="#24613D" fill-opacity="0.11"/>
<path d="M498.507 126.757H429.424V205.837H498.507V126.757Z" fill="#0DA932" fill-opacity="0.31"/>
<path d="M985.054 287.209H915.971V366.289H985.054V287.209Z" fill="#24613D" fill-opacity="0.11"/>
<path d="M428.437 206.983H359.354V286.063H428.437V206.983Z" fill="#0DA932" fill-opacity="0.31"/>
<path d="M985.054 206.983H915.971V286.063H985.054V206.983Z" fill="#24613D" fill-opacity="0.11"/>
<path d="M428.437 126.757H359.354V205.837H428.437V126.757Z" fill="#0DA932" fill-opacity="0.31"/>
<path d="M360.341 770.859H291.258V851.085H360.341V770.859Z" fill="#24613D" fill-opacity="0.25"/>
<path d="M360.341 851.085H291.258V932.457H360.341V851.085Z" fill="#24613D" fill-opacity="0.25"/>
<path d="M221.187 690.633H152.104V770.859H221.187V690.633Z" fill="#24613D" fill-opacity="0.25"/>
<path d="M915.972 45.3846H846.889V125.611H915.972V45.3846Z" fill="#0FAE27" fill-opacity="0.61"/>
<path d="M846.888 -46.3024H777.805V33.9238H846.888V-46.3024Z" fill="#0FAE27" fill-opacity="0.61"/>
<path d="M846.132 44.2385H777.049V125.611H846.132V44.2385Z" fill="#0FAE27" fill-opacity="0.61"/>
<path d="M222.174 124.465H152.104V206.983H222.174V124.465Z" fill="#0D992F" fill-opacity="0.24"/>
<path d="M152.104 44.2385H82.0332V124.465H152.104V44.2385Z" fill="#0D992F" fill-opacity="0.24"/>
<path d="M83.0198 45.3846H12.9492V125.611H83.0198V45.3846Z" fill="#0D992F" fill-opacity="0.24"/>
<path d="M152.104 124.465H82.0332V206.983H152.104V124.465Z" fill="#0D992F" fill-opacity="0.24"/>
<path d="M430.412 -35.9877H360.342V44.2385H430.412V-35.9877Z" fill="#0B902B"/>
<path d="M221.187 286.063H152.104V367.435H221.187V286.063Z" fill="#0D992F" fill-opacity="0.24"/>
<path d="M1055.12 690.633H986.041V770.859H1055.12V690.633Z" fill="#1B8B3B" fill-opacity="0.26"/>
<path d="M1124.21 770.859H1055.13V851.085H1124.21V770.859Z" fill="#1B8B3B" fill-opacity="0.26"/>
</g>
</g>
</g>
</g>
</g>
<defs>
<linearGradient id="paint0_linear_498_1417" x1="163.254" y1="-19.5411" x2="578.321" y2="170.818" gradientUnits="userSpaceOnUse">
<stop stop-color="white"/>
<stop offset="1" stop-color="white" stop-opacity="0"/>
</linearGradient>
<radialGradient id="paint1_radial_498_1417" cx="0" cy="0" r="1" gradientTransform="matrix(582.968 -381.361 564.415 1163.56 133.4 941.112)" gradientUnits="userSpaceOnUse">
<stop stop-color="white"/>
<stop offset="1" stop-color="white" stop-opacity="0"/>
</radialGradient>
<clipPath id="clip0_498_1417">
<rect width="1240" height="1024" fill="white"/>
</clipPath>
</defs>
</svg>
