<svg width="1428" height="1071" viewBox="0 0 1428 1071" fill="none" xmlns="http://www.w3.org/2000/svg">
<mask id="mask0_427_1932" style="mask-type:alpha" maskUnits="userSpaceOnUse" x="-486" y="-270" width="2194" height="1551">
<g opacity="0.12">
<rect x="-0.576802" y="0.576802" width="109.592" height="109.592" transform="matrix(-1 0 0 1 1487.64 -48.5083)" stroke="white" stroke-width="1.1536"/>
<rect x="-0.576802" y="0.576802" width="109.592" height="109.592" transform="matrix(-1 0 0 1 1378.05 -48.5083)" stroke="white" stroke-width="1.1536"/>
<rect x="-0.576802" y="0.576802" width="109.592" height="109.592" transform="matrix(-1 0 0 1 1268.45 -48.5083)" stroke="white" stroke-width="1.1536"/>
<rect x="-0.576802" y="0.576802" width="109.592" height="109.592" transform="matrix(-1 0 0 1 1158.86 -48.5083)" stroke="white" stroke-width="1.1536"/>
<rect x="-0.576802" y="0.576802" width="109.592" height="109.592" transform="matrix(-1 0 0 1 1049.27 -48.5083)" stroke="white" stroke-width="1.1536"/>
<rect x="-0.576802" y="0.576802" width="109.592" height="109.592" transform="matrix(-1 0 0 1 939.677 -48.5083)" stroke="white" stroke-width="1.1536"/>
<rect x="-0.576802" y="0.576802" width="109.592" height="109.592" transform="matrix(-1 0 0 1 830.086 -48.5083)" stroke="white" stroke-width="1.1536"/>
<rect x="-0.576802" y="0.576802" width="109.592" height="109.592" transform="matrix(-1 0 0 1 720.493 -48.5083)" stroke="white" stroke-width="1.1536"/>
<rect x="-0.576802" y="0.576802" width="109.592" height="109.592" transform="matrix(-1 0 0 1 610.9 -48.5083)" stroke="white" stroke-width="1.1536"/>
<rect x="-0.576802" y="0.576802" width="109.592" height="109.592" transform="matrix(-1 0 0 1 501.308 -48.5083)" stroke="white" stroke-width="1.1536"/>
<rect x="-0.576802" y="0.576802" width="109.592" height="109.592" transform="matrix(-1 0 0 1 391.717 -48.5083)" stroke="white" stroke-width="1.1536"/>
<rect x="-0.576802" y="0.576802" width="109.592" height="109.592" transform="matrix(-1 0 0 1 282.124 -48.5083)" stroke="white" stroke-width="1.1536"/>
<rect x="-0.576802" y="0.576802" width="109.592" height="109.592" transform="matrix(-1 0 0 1 172.531 -48.5083)" stroke="white" stroke-width="1.1536"/>
<rect x="-0.576802" y="0.576802" width="109.592" height="109.592" transform="matrix(-1 0 0 1 62.9392 -48.5083)" stroke="white" stroke-width="1.1536"/>
<rect x="-0.576802" y="0.576802" width="109.592" height="109.592" transform="matrix(-1 0 0 1 1487.64 62.2378)" stroke="white" stroke-width="1.1536"/>
<rect x="-0.576802" y="0.576802" width="109.592" height="109.592" transform="matrix(-1 0 0 1 1378.05 62.2378)" stroke="white" stroke-width="1.1536"/>
<rect x="-0.576802" y="0.576802" width="109.592" height="109.592" transform="matrix(-1 0 0 1 1268.45 62.2378)" stroke="white" stroke-width="1.1536"/>
<rect x="-0.576802" y="0.576802" width="109.592" height="109.592" transform="matrix(-1 0 0 1 1158.86 62.2378)" stroke="white" stroke-width="1.1536"/>
<rect x="-0.576802" y="0.576802" width="109.592" height="109.592" transform="matrix(-1 0 0 1 1049.27 62.2378)" stroke="white" stroke-width="1.1536"/>
<rect x="-0.576802" y="0.576802" width="109.592" height="109.592" transform="matrix(-1 0 0 1 939.677 62.2378)" stroke="white" stroke-width="1.1536"/>
<rect x="-0.576802" y="0.576802" width="109.592" height="109.592" transform="matrix(-1 0 0 1 830.086 62.2378)" stroke="white" stroke-width="1.1536"/>
<rect x="-0.576802" y="0.576802" width="109.592" height="109.592" transform="matrix(-1 0 0 1 720.493 62.2378)" stroke="white" stroke-width="1.1536"/>
<rect x="-0.576802" y="0.576802" width="109.592" height="109.592" transform="matrix(-1 0 0 1 610.9 62.2378)" stroke="white" stroke-width="1.1536"/>
<rect x="-0.576802" y="0.576802" width="109.592" height="109.592" transform="matrix(-1 0 0 1 501.308 62.2378)" stroke="white" stroke-width="1.1536"/>
<rect x="-0.576802" y="0.576802" width="109.592" height="109.592" transform="matrix(-1 0 0 1 391.717 62.2378)" stroke="white" stroke-width="1.1536"/>
<rect x="-0.576802" y="0.576802" width="109.592" height="109.592" transform="matrix(-1 0 0 1 282.124 62.2378)" stroke="white" stroke-width="1.1536"/>
<rect x="-0.576802" y="0.576802" width="109.592" height="109.592" transform="matrix(-1 0 0 1 172.531 62.2378)" stroke="white" stroke-width="1.1536"/>
<rect x="-0.576802" y="0.576802" width="109.592" height="109.592" transform="matrix(-1 0 0 1 62.9392 62.2378)" stroke="white" stroke-width="1.1536"/>
<rect x="-0.576802" y="0.576802" width="109.592" height="109.592" transform="matrix(-1 0 0 1 1487.64 172.984)" stroke="white" stroke-width="1.1536"/>
<rect x="-0.576802" y="0.576802" width="109.592" height="109.592" transform="matrix(-1 0 0 1 1378.05 172.984)" stroke="white" stroke-width="1.1536"/>
<rect x="-0.576802" y="0.576802" width="109.592" height="109.592" transform="matrix(-1 0 0 1 1268.45 172.984)" stroke="white" stroke-width="1.1536"/>
<rect width="110.746" height="110.746" transform="matrix(-1 0 0 1 1160.02 172.984)" fill="white" fill-opacity="0.13"/>
<rect x="-0.576802" y="0.576802" width="109.592" height="109.592" transform="matrix(-1 0 0 1 1049.27 172.984)" stroke="white" stroke-width="1.1536"/>
<rect x="-0.576802" y="0.576802" width="109.592" height="109.592" transform="matrix(-1 0 0 1 939.677 172.984)" stroke="white" stroke-width="1.1536"/>
<rect x="-0.576802" y="0.576802" width="109.592" height="109.592" transform="matrix(-1 0 0 1 830.086 172.984)" stroke="white" stroke-width="1.1536"/>
<rect x="-0.576802" y="0.576802" width="109.592" height="109.592" transform="matrix(-1 0 0 1 720.493 172.984)" stroke="white" stroke-width="1.1536"/>
<rect x="-0.576802" y="0.576802" width="109.592" height="109.592" transform="matrix(-1 0 0 1 610.9 172.984)" stroke="white" stroke-width="1.1536"/>
<rect x="-0.576802" y="0.576802" width="109.592" height="109.592" transform="matrix(-1 0 0 1 501.308 172.984)" stroke="white" stroke-width="1.1536"/>
<rect width="110.746" height="110.746" transform="matrix(-1 0 0 1 392.87 172.984)" fill="white" fill-opacity="0.13"/>
<rect x="-0.576802" y="0.576802" width="109.592" height="109.592" transform="matrix(-1 0 0 1 282.124 172.984)" stroke="white" stroke-width="1.1536"/>
<rect width="110.746" height="110.746" transform="matrix(-1 0 0 1 173.685 172.984)" fill="white" fill-opacity="0.13"/>
<rect x="-0.576802" y="0.576802" width="109.592" height="109.592" transform="matrix(-1 0 0 1 62.9392 172.984)" stroke="white" stroke-width="1.1536"/>
<rect x="-0.576802" y="0.576802" width="109.592" height="109.592" transform="matrix(-1 0 0 1 1487.64 283.729)" stroke="white" stroke-width="1.1536"/>
<rect x="-0.576802" y="0.576802" width="109.592" height="109.592" transform="matrix(-1 0 0 1 1378.05 283.729)" stroke="white" stroke-width="1.1536"/>
<rect width="110.746" height="110.746" transform="matrix(-1 0 0 1 1269.61 283.729)" fill="white" fill-opacity="0.13"/>
<rect x="-0.576802" y="0.576802" width="109.592" height="109.592" transform="matrix(-1 0 0 1 1158.86 283.729)" stroke="white" stroke-width="1.1536"/>
<rect width="110.746" height="110.746" transform="matrix(-1 0 0 1 1050.42 283.729)" fill="white" fill-opacity="0.13"/>
<rect x="-0.576802" y="0.576802" width="109.592" height="109.592" transform="matrix(-1 0 0 1 939.677 283.729)" stroke="white" stroke-width="1.1536"/>
<rect x="-0.576802" y="0.576802" width="109.592" height="109.592" transform="matrix(-1 0 0 1 830.086 283.729)" stroke="white" stroke-width="1.1536"/>
<rect x="-0.576802" y="0.576802" width="109.592" height="109.592" transform="matrix(-1 0 0 1 720.493 283.729)" stroke="white" stroke-width="1.1536"/>
<rect x="-0.576802" y="0.576802" width="109.592" height="109.592" transform="matrix(-1 0 0 1 610.9 283.729)" stroke="white" stroke-width="1.1536"/>
<rect width="110.746" height="110.746" transform="matrix(-1 0 0 1 502.462 283.729)" fill="white" fill-opacity="0.13"/>
<rect x="-0.576802" y="0.576802" width="109.592" height="109.592" transform="matrix(-1 0 0 1 391.717 283.729)" stroke="white" stroke-width="1.1536"/>
<rect width="110.746" height="110.746" transform="matrix(-1 0 0 1 283.277 283.729)" fill="white" fill-opacity="0.13"/>
<rect x="-0.576802" y="0.576802" width="109.592" height="109.592" transform="matrix(-1 0 0 1 172.531 283.729)" stroke="white" stroke-width="1.1536"/>
<rect x="-0.576802" y="0.576802" width="109.592" height="109.592" transform="matrix(-1 0 0 1 62.9392 283.729)" stroke="white" stroke-width="1.1536"/>
<rect x="-0.576802" y="0.576802" width="109.592" height="109.592" transform="matrix(-1 0 0 1 1487.64 394.476)" stroke="white" stroke-width="1.1536"/>
<rect width="110.746" height="110.746" transform="matrix(-1 0 0 1 1379.2 394.476)" fill="white" fill-opacity="0.13"/>
<rect x="-0.576802" y="0.576802" width="109.592" height="109.592" transform="matrix(-1 0 0 1 1268.45 394.476)" stroke="white" stroke-width="1.1536"/>
<rect width="110.746" height="110.746" transform="matrix(-1 0 0 1 1160.02 394.476)" fill="white" fill-opacity="0.13"/>
<rect x="-0.576802" y="0.576802" width="109.592" height="109.592" transform="matrix(-1 0 0 1 1049.27 394.476)" stroke="white" stroke-width="1.1536"/>
<rect x="-0.576802" y="0.576802" width="109.592" height="109.592" transform="matrix(-1 0 0 1 939.677 394.476)" stroke="white" stroke-width="1.1536"/>
<rect x="-0.576802" y="0.576802" width="109.592" height="109.592" transform="matrix(-1 0 0 1 830.086 394.476)" stroke="white" stroke-width="1.1536"/>
<rect x="-0.576802" y="0.576802" width="109.592" height="109.592" transform="matrix(-1 0 0 1 720.493 394.476)" stroke="white" stroke-width="1.1536"/>
<rect x="-0.576802" y="0.576802" width="109.592" height="109.592" transform="matrix(-1 0 0 1 610.9 394.476)" stroke="white" stroke-width="1.1536"/>
<rect x="-0.576802" y="0.576802" width="109.592" height="109.592" transform="matrix(-1 0 0 1 501.308 394.476)" stroke="white" stroke-width="1.1536"/>
<rect width="110.746" height="110.746" transform="matrix(-1 0 0 1 392.87 394.476)" fill="white" fill-opacity="0.13"/>
<rect x="-0.576802" y="0.576802" width="109.592" height="109.592" transform="matrix(-1 0 0 1 282.124 394.476)" stroke="white" stroke-width="1.1536"/>
<rect x="-0.576802" y="0.576802" width="109.592" height="109.592" transform="matrix(-1 0 0 1 172.531 394.476)" stroke="white" stroke-width="1.1536"/>
<rect x="-0.576802" y="0.576802" width="109.592" height="109.592" transform="matrix(-1 0 0 1 62.9392 394.476)" stroke="white" stroke-width="1.1536"/>
<rect x="-0.576802" y="0.576802" width="109.592" height="109.592" transform="matrix(-1 0 0 1 1487.64 505.222)" stroke="white" stroke-width="1.1536"/>
<rect x="-0.576802" y="0.576802" width="109.592" height="109.592" transform="matrix(-1 0 0 1 1378.05 505.222)" stroke="white" stroke-width="1.1536"/>
<rect x="-0.576802" y="0.576802" width="109.592" height="109.592" transform="matrix(-1 0 0 1 1268.45 505.222)" stroke="white" stroke-width="1.1536"/>
<rect x="-0.576802" y="0.576802" width="109.592" height="109.592" transform="matrix(-1 0 0 1 1158.86 505.222)" stroke="white" stroke-width="1.1536"/>
<rect x="-0.576802" y="0.576802" width="109.592" height="109.592" transform="matrix(-1 0 0 1 1049.27 505.222)" stroke="white" stroke-width="1.1536"/>
<rect x="-0.576802" y="0.576802" width="109.592" height="109.592" transform="matrix(-1 0 0 1 939.677 505.222)" stroke="white" stroke-width="1.1536"/>
<rect x="-0.576802" y="0.576802" width="109.592" height="109.592" transform="matrix(-1 0 0 1 830.086 505.222)" stroke="white" stroke-width="1.1536"/>
<rect x="-0.576802" y="0.576802" width="109.592" height="109.592" transform="matrix(-1 0 0 1 720.493 505.222)" stroke="white" stroke-width="1.1536"/>
<rect x="-0.576802" y="0.576802" width="109.592" height="109.592" transform="matrix(-1 0 0 1 610.9 505.222)" stroke="white" stroke-width="1.1536"/>
<rect x="-0.576802" y="0.576802" width="109.592" height="109.592" transform="matrix(-1 0 0 1 501.308 505.222)" stroke="white" stroke-width="1.1536"/>
<rect x="-0.576802" y="0.576802" width="109.592" height="109.592" transform="matrix(-1 0 0 1 391.717 505.222)" stroke="white" stroke-width="1.1536"/>
<rect x="-0.576802" y="0.576802" width="109.592" height="109.592" transform="matrix(-1 0 0 1 282.124 505.222)" stroke="white" stroke-width="1.1536"/>
<rect x="-0.576802" y="0.576802" width="109.592" height="109.592" transform="matrix(-1 0 0 1 172.531 505.222)" stroke="white" stroke-width="1.1536"/>
<rect x="-0.576802" y="0.576802" width="109.592" height="109.592" transform="matrix(-1 0 0 1 62.9392 505.222)" stroke="white" stroke-width="1.1536"/>
<rect x="-0.576802" y="0.576802" width="109.592" height="109.592" transform="matrix(-1 0 0 1 1487.64 615.967)" stroke="white" stroke-width="1.1536"/>
<rect x="-0.576802" y="0.576802" width="109.592" height="109.592" transform="matrix(-1 0 0 1 1378.05 615.967)" stroke="white" stroke-width="1.1536"/>
<rect x="-0.576802" y="0.576802" width="109.592" height="109.592" transform="matrix(-1 0 0 1 1268.45 615.967)" stroke="white" stroke-width="1.1536"/>
<rect x="-0.576802" y="0.576802" width="109.592" height="109.592" transform="matrix(-1 0 0 1 1158.86 615.967)" stroke="white" stroke-width="1.1536"/>
<rect x="-0.576802" y="0.576802" width="109.592" height="109.592" transform="matrix(-1 0 0 1 1049.27 615.967)" stroke="white" stroke-width="1.1536"/>
<rect x="-0.576802" y="0.576802" width="109.592" height="109.592" transform="matrix(-1 0 0 1 939.677 615.967)" stroke="white" stroke-width="1.1536"/>
<rect x="-0.576802" y="0.576802" width="109.592" height="109.592" transform="matrix(-1 0 0 1 830.086 615.967)" stroke="white" stroke-width="1.1536"/>
<rect x="-0.576802" y="0.576802" width="109.592" height="109.592" transform="matrix(-1 0 0 1 720.493 615.967)" stroke="white" stroke-width="1.1536"/>
<rect x="-0.576802" y="0.576802" width="109.592" height="109.592" transform="matrix(-1 0 0 1 610.9 615.967)" stroke="white" stroke-width="1.1536"/>
<rect width="110.746" height="110.746" transform="matrix(-1 0 0 1 502.462 615.967)" fill="white" fill-opacity="0.13"/>
<rect x="-0.576802" y="0.576802" width="109.592" height="109.592" transform="matrix(-1 0 0 1 391.717 615.967)" stroke="white" stroke-width="1.1536"/>
<rect x="-0.576802" y="0.576802" width="109.592" height="109.592" transform="matrix(-1 0 0 1 282.124 615.967)" stroke="white" stroke-width="1.1536"/>
<rect x="-0.576802" y="0.576802" width="109.592" height="109.592" transform="matrix(-1 0 0 1 172.531 615.967)" stroke="white" stroke-width="1.1536"/>
<rect x="-0.576802" y="0.576802" width="109.592" height="109.592" transform="matrix(-1 0 0 1 62.9392 615.967)" stroke="white" stroke-width="1.1536"/>
<rect x="-0.576802" y="0.576802" width="109.592" height="109.592" transform="matrix(-1 0 0 1 1487.64 726.713)" stroke="white" stroke-width="1.1536"/>
<rect x="-0.576802" y="0.576802" width="109.592" height="109.592" transform="matrix(-1 0 0 1 1378.05 726.713)" stroke="white" stroke-width="1.1536"/>
<rect x="-0.576802" y="0.576802" width="109.592" height="109.592" transform="matrix(-1 0 0 1 1268.45 726.713)" stroke="white" stroke-width="1.1536"/>
<rect x="-0.576802" y="0.576802" width="109.592" height="109.592" transform="matrix(-1 0 0 1 1158.86 726.713)" stroke="white" stroke-width="1.1536"/>
<rect x="-0.576802" y="0.576802" width="109.592" height="109.592" transform="matrix(-1 0 0 1 1049.27 726.713)" stroke="white" stroke-width="1.1536"/>
<rect x="-0.576802" y="0.576802" width="109.592" height="109.592" transform="matrix(-1 0 0 1 939.677 726.713)" stroke="white" stroke-width="1.1536"/>
<rect x="-0.576802" y="0.576802" width="109.592" height="109.592" transform="matrix(-1 0 0 1 830.086 726.713)" stroke="white" stroke-width="1.1536"/>
<rect x="-0.576802" y="0.576802" width="109.592" height="109.592" transform="matrix(-1 0 0 1 720.493 726.713)" stroke="white" stroke-width="1.1536"/>
<rect width="110.746" height="110.746" transform="matrix(-1 0 0 1 612.054 726.713)" fill="white" fill-opacity="0.13"/>
<rect x="-0.576802" y="0.576802" width="109.592" height="109.592" transform="matrix(-1 0 0 1 501.308 726.713)" stroke="white" stroke-width="1.1536"/>
<rect width="110.746" height="110.746" transform="matrix(-1 0 0 1 392.87 726.713)" fill="white" fill-opacity="0.13"/>
<rect x="-0.576802" y="0.576802" width="109.592" height="109.592" transform="matrix(-1 0 0 1 282.124 726.713)" stroke="white" stroke-width="1.1536"/>
<rect width="110.746" height="110.746" transform="matrix(-1 0 0 1 173.685 726.713)" fill="white" fill-opacity="0.13"/>
<rect x="-0.576802" y="0.576802" width="109.592" height="109.592" transform="matrix(-1 0 0 1 62.9392 726.713)" stroke="white" stroke-width="1.1536"/>
<rect x="-0.576802" y="0.576802" width="109.592" height="109.592" transform="matrix(-1 0 0 1 1487.64 837.459)" stroke="white" stroke-width="1.1536"/>
<rect x="-0.576802" y="0.576802" width="109.592" height="109.592" transform="matrix(-1 0 0 1 1378.05 837.459)" stroke="white" stroke-width="1.1536"/>
<rect x="-0.576802" y="0.576802" width="109.592" height="109.592" transform="matrix(-1 0 0 1 1268.45 837.459)" stroke="white" stroke-width="1.1536"/>
<rect x="-0.576802" y="0.576802" width="109.592" height="109.592" transform="matrix(-1 0 0 1 1158.86 837.459)" stroke="white" stroke-width="1.1536"/>
<rect x="-0.576802" y="0.576802" width="109.592" height="109.592" transform="matrix(-1 0 0 1 1049.27 837.459)" stroke="white" stroke-width="1.1536"/>
<rect x="-0.576802" y="0.576802" width="109.592" height="109.592" transform="matrix(-1 0 0 1 939.677 837.459)" stroke="white" stroke-width="1.1536"/>
<rect x="-0.576802" y="0.576802" width="109.592" height="109.592" transform="matrix(-1 0 0 1 830.086 837.459)" stroke="white" stroke-width="1.1536"/>
<rect width="110.746" height="110.746" transform="matrix(-1 0 0 1 721.646 837.459)" fill="white" fill-opacity="0.13"/>
<rect x="-0.576802" y="0.576802" width="109.592" height="109.592" transform="matrix(-1 0 0 1 610.9 837.459)" stroke="white" stroke-width="1.1536"/>
<rect width="110.746" height="110.746" transform="matrix(-1 0 0 1 502.462 837.459)" fill="white" fill-opacity="0.13"/>
<rect x="-0.576802" y="0.576802" width="109.592" height="109.592" transform="matrix(-1 0 0 1 391.717 837.459)" stroke="white" stroke-width="1.1536"/>
<rect width="110.746" height="110.746" transform="matrix(-1 0 0 1 283.277 837.459)" fill="white" fill-opacity="0.13"/>
<rect x="-0.576802" y="0.576802" width="109.592" height="109.592" transform="matrix(-1 0 0 1 172.531 837.459)" stroke="white" stroke-width="1.1536"/>
<rect x="-0.576802" y="0.576802" width="109.592" height="109.592" transform="matrix(-1 0 0 1 62.9392 837.459)" stroke="white" stroke-width="1.1536"/>
<rect x="-0.576802" y="0.576802" width="109.592" height="109.592" transform="matrix(-1 0 0 1 1487.64 948.205)" stroke="white" stroke-width="1.1536"/>
<rect x="-0.576802" y="0.576802" width="109.592" height="109.592" transform="matrix(-1 0 0 1 1378.05 948.205)" stroke="white" stroke-width="1.1536"/>
<rect x="-0.576802" y="0.576802" width="109.592" height="109.592" transform="matrix(-1 0 0 1 1268.45 948.205)" stroke="white" stroke-width="1.1536"/>
<rect x="-0.576802" y="0.576802" width="109.592" height="109.592" transform="matrix(-1 0 0 1 1158.86 948.205)" stroke="white" stroke-width="1.1536"/>
<rect x="-0.576802" y="0.576802" width="109.592" height="109.592" transform="matrix(-1 0 0 1 1049.27 948.205)" stroke="white" stroke-width="1.1536"/>
<rect x="-0.576802" y="0.576802" width="109.592" height="109.592" transform="matrix(-1 0 0 1 939.677 948.205)" stroke="white" stroke-width="1.1536"/>
<rect x="-0.576802" y="0.576802" width="109.592" height="109.592" transform="matrix(-1 0 0 1 830.086 948.205)" stroke="white" stroke-width="1.1536"/>
<rect x="-0.576802" y="0.576802" width="109.592" height="109.592" transform="matrix(-1 0 0 1 720.493 948.205)" stroke="white" stroke-width="1.1536"/>
<rect width="110.746" height="110.746" transform="matrix(-1 0 0 1 612.054 948.205)" fill="white" fill-opacity="0.13"/>
<rect x="-0.576802" y="0.576802" width="109.592" height="109.592" transform="matrix(-1 0 0 1 501.308 948.205)" stroke="white" stroke-width="1.1536"/>
<rect width="110.746" height="110.746" transform="matrix(-1 0 0 1 392.87 948.205)" fill="white" fill-opacity="0.13"/>
<rect x="-0.576802" y="0.576802" width="109.592" height="109.592" transform="matrix(-1 0 0 1 282.124 948.205)" stroke="white" stroke-width="1.1536"/>
<rect x="-0.576802" y="0.576802" width="109.592" height="109.592" transform="matrix(-1 0 0 1 172.531 948.205)" stroke="white" stroke-width="1.1536"/>
<rect x="-0.576802" y="0.576802" width="109.592" height="109.592" transform="matrix(-1 0 0 1 62.9392 948.205)" stroke="white" stroke-width="1.1536"/>
<rect x="-0.576802" y="0.576802" width="109.592" height="109.592" transform="matrix(-1 0 0 1 1487.64 1058.95)" stroke="white" stroke-width="1.1536"/>
<rect x="-0.576802" y="0.576802" width="109.592" height="109.592" transform="matrix(-1 0 0 1 1378.05 1058.95)" stroke="white" stroke-width="1.1536"/>
<rect x="-0.576802" y="0.576802" width="109.592" height="109.592" transform="matrix(-1 0 0 1 1268.45 1058.95)" stroke="white" stroke-width="1.1536"/>
<rect x="-0.576802" y="0.576802" width="109.592" height="109.592" transform="matrix(-1 0 0 1 1158.86 1058.95)" stroke="white" stroke-width="1.1536"/>
<rect x="-0.576802" y="0.576802" width="109.592" height="109.592" transform="matrix(-1 0 0 1 1049.27 1058.95)" stroke="white" stroke-width="1.1536"/>
<rect x="-0.576802" y="0.576802" width="109.592" height="109.592" transform="matrix(-1 0 0 1 939.677 1058.95)" stroke="white" stroke-width="1.1536"/>
<rect x="-0.576802" y="0.576802" width="109.592" height="109.592" transform="matrix(-1 0 0 1 830.086 1058.95)" stroke="white" stroke-width="1.1536"/>
<rect x="-0.576802" y="0.576802" width="109.592" height="109.592" transform="matrix(-1 0 0 1 720.493 1058.95)" stroke="white" stroke-width="1.1536"/>
<rect x="-0.576802" y="0.576802" width="109.592" height="109.592" transform="matrix(-1 0 0 1 610.9 1058.95)" stroke="white" stroke-width="1.1536"/>
<rect x="-0.576802" y="0.576802" width="109.592" height="109.592" transform="matrix(-1 0 0 1 501.308 1058.95)" stroke="white" stroke-width="1.1536"/>
<rect x="-0.576802" y="0.576802" width="109.592" height="109.592" transform="matrix(-1 0 0 1 391.717 1058.95)" stroke="white" stroke-width="1.1536"/>
<rect x="-0.576802" y="0.576802" width="109.592" height="109.592" transform="matrix(-1 0 0 1 282.124 1058.95)" stroke="white" stroke-width="1.1536"/>
<rect x="-0.576802" y="0.576802" width="109.592" height="109.592" transform="matrix(-1 0 0 1 172.531 1058.95)" stroke="white" stroke-width="1.1536"/>
<rect x="-0.576802" y="0.576802" width="109.592" height="109.592" transform="matrix(-1 0 0 1 62.9392 1058.95)" stroke="white" stroke-width="1.1536"/>
</g>
</mask>
<g mask="url(#mask0_427_1932)">
<g filter="url(#filter0_f_427_1932)">
<ellipse cx="264.661" cy="190.017" rx="264.661" ry="190.017" transform="matrix(-0.827766 0.561073 0.561073 0.827766 1194.75 59)" fill="#D9D9D9"/>
</g>
<g filter="url(#filter1_f_427_1932)">
<ellipse cx="252.123" cy="183.841" rx="252.123" ry="183.841" transform="matrix(-0.864756 0.502193 0.502193 0.864756 537.331 526)" fill="#D9D9D9"/>
</g>
<g filter="url(#filter2_f_427_1932)">
<ellipse cx="220.175" cy="157.363" rx="220.175" ry="157.363" transform="matrix(-0.965926 -0.258819 -0.258819 0.965926 589.979 188.971)" fill="#D9D9D9"/>
</g>
</g>
<defs>
<filter id="filter0_f_427_1932" x="782.589" y="92.4722" width="599.395" height="544.624" filterUnits="userSpaceOnUse" color-interpolation-filters="sRGB">
<feFlood flood-opacity="0" result="BackgroundImageFix"/>
<feBlend mode="normal" in="SourceGraphic" in2="BackgroundImageFix" result="shape"/>
<feGaussianBlur stdDeviation="28" result="effect1_foregroundBlur_427_1932"/>
</filter>
<filter id="filter1_f_427_1932" x="118.803" y="552.348" width="585.655" height="518.488" filterUnits="userSpaceOnUse" color-interpolation-filters="sRGB">
<feFlood flood-opacity="0" result="BackgroundImageFix"/>
<feBlend mode="normal" in="SourceGraphic" in2="BackgroundImageFix" result="shape"/>
<feGaussianBlur stdDeviation="28" result="effect1_foregroundBlur_427_1932"/>
</filter>
<filter id="filter2_f_427_1932" x="0" y="1.61084" width="673.154" height="564.751" filterUnits="userSpaceOnUse" color-interpolation-filters="sRGB">
<feFlood flood-opacity="0" result="BackgroundImageFix"/>
<feBlend mode="normal" in="SourceGraphic" in2="BackgroundImageFix" result="shape"/>
<feGaussianBlur stdDeviation="60" result="effect1_foregroundBlur_427_1932"/>
</filter>
</defs>
</svg>
