<svg width="200" height="40" viewBox="0 0 200 40" fill="none" xmlns="http://www.w3.org/2000/svg">
<path d="M94.6333 24.1383V38.3327H101.221V23.216C101.221 21.3029 100.635 19.6119 99.4639 18.1429C98.2929 16.6739 96.6827 15.5295 94.6333 14.7096C92.6327 13.8897 90.315 13.4798 87.6801 13.4798C85.0452 13.4798 82.6787 13.9068 80.5806 14.7609C79.0001 15.3784 77.6827 16.1705 76.6282 17.137V1.74512H70.041V38.3327H76.6282V24.1383C76.6282 22.9085 77.0186 21.8153 77.7993 20.8588C78.58 19.9022 79.6535 19.1507 81.0197 18.6041C82.386 18.0575 83.9474 17.7842 85.704 17.7842C88.3389 17.7842 90.4858 18.382 92.1448 19.5777C93.8038 20.7734 94.6333 22.2936 94.6333 24.1383Z" fill="#FFFFFE"/>
<path d="M112.774 37.5128C115.067 38.401 117.653 38.8451 120.532 38.8451C123.46 38.8451 126.022 38.401 128.217 37.5128C130.462 36.5904 132.218 35.3264 133.487 33.7208C134.756 32.1152 135.39 30.2533 135.39 28.1353V13.9922H128.803V27.9303C128.803 29.9459 128.071 31.5344 126.607 32.6959C125.143 33.8233 123.118 34.3869 120.532 34.3869C118.824 34.3869 117.336 34.1307 116.068 33.6183C114.799 33.1059 113.823 32.3714 113.14 31.4148C112.506 30.4241 112.188 29.2626 112.188 27.9303V13.9922H105.601V28.1353C105.601 30.2533 106.235 32.1152 107.504 33.7208C108.773 35.3264 110.529 36.5904 112.774 37.5128Z" fill="#FFFFFE"/>
<path fill-rule="evenodd" clip-rule="evenodd" d="M156.661 38.8451C153.197 38.8451 150.074 38.2985 147.293 37.2053C144.512 36.078 142.316 34.5578 140.706 32.6447C139.095 30.7316 138.29 28.5623 138.29 26.1368C138.29 23.7455 139.071 21.5933 140.632 19.6802C142.243 17.7671 144.39 16.264 147.073 15.1708C149.806 14.0435 152.855 13.4798 156.222 13.4798C159.443 13.4798 162.273 13.9922 164.712 15.0171C167.201 16.0419 169.128 17.4597 170.494 19.2702C171.909 21.0808 172.617 23.1306 172.617 25.4194C172.617 25.761 172.593 26.1368 172.544 26.5468C172.495 26.9225 172.397 27.3666 172.251 27.8791H145.025C145.256 28.827 145.671 29.6981 146.268 30.4925C147.244 31.7565 148.635 32.7472 150.44 33.4646C152.245 34.1478 154.319 34.4894 156.661 34.4894C158.613 34.4894 160.394 34.2503 162.004 33.772C163.663 33.2938 165.078 32.5764 166.249 31.6198L170.494 34.6432C168.835 36.0096 166.786 37.0516 164.346 37.769C161.955 38.4864 159.394 38.8451 156.661 38.8451ZM146.195 21.6274C145.648 22.353 145.262 23.1558 145.038 24.0358H166.197C166.017 23.0284 165.644 22.1402 165.078 21.3712C164.249 20.2097 163.078 19.3215 161.565 18.7066C160.052 18.0575 158.223 17.733 156.076 17.733C153.831 17.733 151.855 18.0746 150.147 18.7578C148.439 19.4411 147.122 20.3976 146.195 21.6274Z" fill="#FFFFFE"/>
<path d="M176.872 36.7954C178.336 37.4444 179.921 37.9569 181.629 38.3327C183.386 38.6743 185.24 38.8451 187.192 38.8451C191.095 38.8451 194.194 38.1789 196.487 36.8466C198.829 35.5143 200 33.7037 200 31.4148C200 29.9117 199.537 28.699 198.61 27.7766C197.731 26.8542 196.585 26.1197 195.17 25.5731C193.755 25.0265 192.266 24.5995 190.705 24.2921C189.144 23.9504 187.631 23.6259 186.167 23.3184C184.752 23.011 183.605 22.6352 182.727 22.1911C181.849 21.747 181.41 21.115 181.41 20.2951C181.41 19.4752 181.898 18.8432 182.873 18.3991C183.898 17.9208 185.362 17.6817 187.265 17.6817C189.07 17.6817 190.681 17.9208 192.096 18.3991C193.559 18.8774 194.779 19.5606 195.755 20.4488L200 17.4767C198.634 16.1444 196.877 15.1537 194.731 14.5046C192.632 13.8214 190.217 13.4798 187.485 13.4798C184.898 13.4798 182.678 13.7702 180.824 14.3509C179.019 14.9317 177.604 15.7686 176.579 16.8618C175.554 17.9208 175.042 19.1848 175.042 20.6538C175.042 22.1228 175.481 23.3014 176.359 24.1896C177.287 25.0778 178.458 25.7781 179.873 26.2905C181.288 26.803 182.776 27.23 184.337 27.5716C185.948 27.8791 187.46 28.2036 188.875 28.5452C190.29 28.8527 191.437 29.2626 192.315 29.7751C193.242 30.2533 193.706 30.9366 193.706 31.8248C193.706 32.713 193.145 33.4133 192.022 33.9258C190.9 34.404 189.314 34.6432 187.265 34.6432C185.216 34.6432 183.361 34.3869 181.702 33.8745C180.043 33.3279 178.58 32.508 177.311 31.4148L173.066 34.3869C174.139 35.3093 175.408 36.1121 176.872 36.7954Z" fill="#FFFFFE"/>
<path d="M193.834 5.81944V6.72757H192.272V9.49049H190.79V6.72757H189.229V5.81944H193.834Z" fill="#FFFFFE"/>
<path d="M199.92 5.7644V9.507H198.438V7.69074L197.352 8.54384H196.908L195.822 7.69074V9.507H194.34V5.7644H194.863L197.13 7.36051L199.397 5.7644H199.92Z" fill="#FFFFFE"/>
<path d="M6.86987 11.7925C8.92118 16.3974 15.916 18.9662 22.4932 17.53C29.0705 16.0938 44.6486 8.59615 42.5973 3.99127C40.546 -0.613624 21.642 -0.581963 15.0648 0.854207C8.48756 2.29038 4.81856 7.18762 6.86987 11.7925Z" fill="url(#paint0_radial_237_243)"/>
<path d="M2.89538 37.043C6.75589 39.7458 13.0143 39.7458 16.8748 37.043C20.7353 34.3401 27.7247 25.0646 23.8649 22.3617C20.0044 19.6591 6.75589 24.5528 2.89538 27.2554C-0.965127 29.9582 -0.965127 34.3401 2.89538 37.043Z" fill="url(#paint1_radial_237_243)"/>
<path d="M39.835 39.7003C46.4901 40.9487 53.3306 38.1838 55.114 33.5244C56.8967 28.8651 56.1765 15.6397 49.5215 14.3911C42.8664 13.1427 32.7976 24.3441 31.0142 29.0034C29.2308 33.6625 33.18 38.4517 39.835 39.7003Z" fill="url(#paint2_linear_237_243)"/>
<defs>
<radialGradient id="paint0_radial_237_243" cx="0" cy="0" r="1" gradientTransform="matrix(-50.2462 10.9175 -22.2152 -50.1165 42.7685 3.77397)" gradientUnits="userSpaceOnUse">
<stop stop-color="#3E96F7"/>
<stop offset="0.48585" stop-color="#9301FF"/>
<stop offset="0.71428" stop-color="#CC01FE"/>
</radialGradient>
<radialGradient id="paint1_radial_237_243" cx="0" cy="0" r="1" gradientTransform="matrix(-37.7713 17.2254 -15.6653 -80.1646 27.0926 21.3498)" gradientUnits="userSpaceOnUse">
<stop offset="0.0977501" stop-color="#D730A2"/>
<stop offset="0.467786" stop-color="#FD291C"/>
<stop offset="0.700031" stop-color="#FCA13D"/>
</radialGradient>
<linearGradient id="paint2_linear_237_243" x1="46.4977" y1="15.2845" x2="46.4977" y2="40.2735" gradientUnits="userSpaceOnUse">
<stop stop-color="#9F58EE"/>
<stop offset="1" stop-color="#56F77C"/>
</linearGradient>
</defs>
</svg>
