<svg width="204" height="39" viewBox="0 0 204 39" fill="none" xmlns="http://www.w3.org/2000/svg">
<path d="M4.92643 4.31002C7.64956 1.71014 11.3472 0.192584 15.0948 0.00385167C16.3774 0.00385167 17.6639 0.011555 18.9465 0C18.881 1.37505 18.9465 2.75394 18.908 4.12899C18.727 7.20262 17.5907 10.2069 15.6764 12.6181C13.1883 15.8612 9.38281 18.0374 5.34241 18.5997C3.57835 18.8847 1.78732 18.7037 0.0116991 18.7538C0.0425124 17.2401 -0.0537793 15.7225 0.0656225 14.2127C0.412273 10.4688 2.18019 6.88294 4.92643 4.31002Z" fill="#FFC100"/>
<path d="M20.1338 0C21.5088 0.0154067 22.8839 -0.00770334 24.2628 0.00770334C27.6946 0.250359 31.0802 1.56763 33.6647 3.85167C36.5149 6.29748 38.4677 9.7948 38.9685 13.5309C39.188 15.2642 39.0493 17.0167 39.1341 18.7576C37.9324 18.7538 36.7345 18.7499 35.5328 18.7576C32.5785 18.6767 29.6744 17.7215 27.2016 16.1115C26.0615 15.295 24.8906 14.4669 24.0355 13.3345C22.1598 11.2392 20.8849 8.60848 20.4034 5.83528C20.0413 3.90945 20.1877 1.94509 20.1338 0Z" fill="#FFC100"/>
<path d="M0.0142378 19.8591C1.23522 19.9285 2.46005 19.8014 3.67718 19.9362C8.88849 20.0479 13.9457 22.9751 16.6457 27.4315C18.1941 29.9274 19.0261 32.8855 18.9182 35.8243C18.9144 36.7872 18.9298 37.7463 18.9028 38.7054C16.9693 38.6476 15.0165 38.8055 13.1022 38.4319C8.84997 37.7155 4.94052 35.1849 2.58715 31.5721C0.80383 28.9452 -0.0859056 25.7368 0.00653444 22.5669C0.00653444 21.6617 0.00653444 20.7604 0.0142378 19.8591Z" fill="#FFC100"/>
<path d="M32.6267 20.2671C34.722 19.801 36.8828 19.878 39.0128 19.878L39.1052 19.9705C39.059 21.9849 39.2169 24.0224 38.8125 26.0138C37.9613 30.4817 35.0032 34.472 31.0244 36.6636C28.5478 38.0425 25.7053 38.7204 22.8743 38.6896C21.9692 38.6935 21.0602 38.6742 20.155 38.7012C20.155 37.0334 20.0857 35.3579 20.2744 33.6978C20.7135 29.6805 22.8858 25.9406 26.0096 23.4139C27.9431 21.8886 30.2156 20.7832 32.6267 20.2671Z" fill="#FFC100"/>
<path d="M58.6944 31.5626C58.6944 32.2407 58.4597 32.8145 57.9903 33.2839C57.5469 33.7273 56.9862 33.949 56.3081 33.949C55.6561 33.949 55.1084 33.7273 54.665 33.2839C54.2217 32.8145 54 32.2407 54 31.5626V7.38633C54 6.70825 54.2217 6.14752 54.665 5.70416C55.1345 5.23472 55.7082 5 56.3863 5C57.0644 5 57.6121 5.23472 58.0294 5.70416C58.4727 6.14752 58.6944 6.70825 58.6944 7.38633V31.5626Z" fill="white"/>
<path d="M77.5366 13.0196C78.2147 13.0196 78.7754 13.2544 79.2188 13.7238C79.6621 14.1672 79.8838 14.7279 79.8838 15.406V25.3425C79.8838 28.107 79.1145 30.2977 77.5757 31.9147C76.037 33.5317 73.8202 34.3402 70.9253 34.3402C68.0304 34.3402 65.8136 33.5317 64.2749 31.9147C62.7622 30.2977 62.0059 28.107 62.0059 25.3425V15.406C62.0059 14.7279 62.2276 14.1672 62.6709 13.7238C63.1143 13.2544 63.675 13.0196 64.3531 13.0196C65.0312 13.0196 65.5919 13.2544 66.0353 13.7238C66.4786 14.1672 66.7003 14.7279 66.7003 15.406V25.3425C66.7003 26.9334 67.0524 28.12 67.7566 28.9024C68.4607 29.6588 69.517 30.0369 70.9253 30.0369C72.3597 30.0369 73.429 29.6588 74.1332 28.9024C74.8373 28.12 75.1894 26.9334 75.1894 25.3425V15.406C75.1894 14.7279 75.4111 14.1672 75.8544 13.7238C76.2978 13.2544 76.8585 13.0196 77.5366 13.0196Z" fill="white"/>
<path d="M94.0029 12.6284C96.0893 12.6284 97.628 13.137 98.619 14.1541C99.6101 15.1452 100.262 16.4361 100.575 18.027L99.91 17.6749L100.223 17.049C100.536 16.4492 101.018 15.8102 101.67 15.1321C102.322 14.428 103.105 13.8412 104.018 13.3717C104.957 12.8762 106 12.6284 107.147 12.6284C109.025 12.6284 110.446 13.0327 111.411 13.8412C112.402 14.6497 113.08 15.732 113.446 17.0881C113.811 18.4182 113.993 19.9048 113.993 21.5478V31.5626C113.993 32.2407 113.772 32.8145 113.328 33.2839C112.885 33.7273 112.324 33.949 111.646 33.949C110.968 33.949 110.407 33.7273 109.964 33.2839C109.521 32.8145 109.299 32.2407 109.299 31.5626V21.5478C109.299 20.6872 109.195 19.9178 108.986 19.2398C108.777 18.5356 108.399 17.9749 107.851 17.5576C107.304 17.1403 106.521 16.9317 105.504 16.9317C104.513 16.9317 103.666 17.1403 102.961 17.5576C102.257 17.9749 101.723 18.5356 101.357 19.2398C101.018 19.9178 100.849 20.6872 100.849 21.5478V31.5626C100.849 32.2407 100.627 32.8145 100.184 33.2839C99.7405 33.7273 99.1798 33.949 98.5017 33.949C97.8236 33.949 97.2629 33.7273 96.8195 33.2839C96.3761 32.8145 96.1545 32.2407 96.1545 31.5626V21.5478C96.1545 20.6872 96.0501 19.9178 95.8415 19.2398C95.6329 18.5356 95.2547 17.9749 94.707 17.5576C94.1593 17.1403 93.3769 16.9317 92.3598 16.9317C91.3688 16.9317 90.5212 17.1403 89.817 17.5576C89.1128 17.9749 88.5782 18.5356 88.2131 19.2398C87.874 19.9178 87.7045 20.6872 87.7045 21.5478V31.5626C87.7045 32.2407 87.4828 32.8145 87.0395 33.2839C86.5961 33.7273 86.0354 33.949 85.3573 33.949C84.6792 33.949 84.1185 33.7273 83.6751 33.2839C83.2318 32.8145 83.0101 32.2407 83.0101 31.5626V15.406C83.0101 14.7279 83.2318 14.1672 83.6751 13.7238C84.1185 13.2544 84.6792 13.0196 85.3573 13.0196C86.0354 13.0196 86.5961 13.2544 87.0395 13.7238C87.4828 14.1672 87.7045 14.7279 87.7045 15.406V17.0881L87.1177 16.9708C87.3524 16.5274 87.6784 16.058 88.0957 15.5625C88.513 15.0409 89.0215 14.5584 89.6214 14.115C90.2212 13.6716 90.8863 13.3196 91.6165 13.0588C92.3468 12.7719 93.1422 12.6284 94.0029 12.6284Z" fill="white"/>
<path d="M121.539 31.5626C121.539 32.2407 121.317 32.8145 120.874 33.2839C120.43 33.7273 119.869 33.949 119.191 33.949C118.513 33.949 117.953 33.7273 117.509 33.2839C117.066 32.8145 116.844 32.2407 116.844 31.5626V15.406C116.844 14.7279 117.066 14.1672 117.509 13.7238C117.953 13.2544 118.513 13.0196 119.191 13.0196C119.869 13.0196 120.43 13.2544 120.874 13.7238C121.317 14.1672 121.539 14.7279 121.539 15.406V31.5626ZM119.152 10.4768C118.266 10.4768 117.64 10.3334 117.274 10.0465C116.909 9.75962 116.727 9.25106 116.727 8.52082V7.77753C116.727 7.02121 116.922 6.51265 117.314 6.25185C117.731 5.96496 118.357 5.82152 119.191 5.82152C120.104 5.82152 120.743 5.96496 121.108 6.25185C121.473 6.53873 121.656 7.04729 121.656 7.77753V8.52082C121.656 9.27714 121.46 9.79874 121.069 10.0856C120.678 10.3464 120.039 10.4768 119.152 10.4768Z" fill="white"/>
<path d="M135.596 12.6284C137.526 12.6284 138.986 13.0327 139.977 13.8412C140.994 14.6497 141.685 15.732 142.05 17.0881C142.442 18.4182 142.637 19.9048 142.637 21.5478V31.5626C142.637 32.2407 142.416 32.8145 141.972 33.2839C141.529 33.7273 140.968 33.949 140.29 33.949C139.612 33.949 139.051 33.7273 138.608 33.2839C138.164 32.8145 137.943 32.2407 137.943 31.5626V21.5478C137.943 20.6872 137.825 19.9178 137.591 19.2398C137.382 18.5356 136.991 17.9749 136.417 17.5576C135.843 17.1403 135.022 16.9317 133.953 16.9317C132.909 16.9317 132.023 17.1403 131.292 17.5576C130.588 17.9749 130.041 18.5356 129.649 19.2398C129.284 19.9178 129.102 20.6872 129.102 21.5478V31.5626C129.102 32.2407 128.88 32.8145 128.437 33.2839C127.993 33.7273 127.432 33.949 126.754 33.949C126.076 33.949 125.516 33.7273 125.072 33.2839C124.629 32.8145 124.407 32.2407 124.407 31.5626V15.406C124.407 14.7279 124.629 14.1672 125.072 13.7238C125.516 13.2544 126.076 13.0196 126.754 13.0196C127.432 13.0196 127.993 13.2544 128.437 13.7238C128.88 14.1672 129.102 14.7279 129.102 15.406V17.0881L128.515 16.9708C128.75 16.5274 129.089 16.058 129.532 15.5625C129.975 15.0409 130.497 14.5584 131.097 14.115C131.697 13.6716 132.375 13.3196 133.131 13.0588C133.887 12.7719 134.709 12.6284 135.596 12.6284Z" fill="white"/>
<path d="M165.863 23.5039C165.863 25.6424 165.381 27.5332 164.416 29.1763C163.477 30.7933 162.199 32.0581 160.582 32.9709C158.991 33.8838 157.204 34.3402 155.222 34.3402C153.24 34.3402 151.441 33.8838 149.824 32.9709C148.233 32.0581 146.955 30.7933 145.99 29.1763C145.051 27.5332 144.582 25.6424 144.582 23.5039C144.582 21.3653 145.051 19.4875 145.99 17.8705C146.955 16.2275 148.233 14.9496 149.824 14.0368C151.441 13.0979 153.24 12.6284 155.222 12.6284C157.204 12.6284 158.991 13.0979 160.582 14.0368C162.199 14.9496 163.477 16.2275 164.416 17.8705C165.381 19.4875 165.863 21.3653 165.863 23.5039ZM161.169 23.5039C161.169 22.1738 160.895 21.0262 160.347 20.0613C159.825 19.0702 159.108 18.3009 158.195 17.7532C157.309 17.2055 156.318 16.9317 155.222 16.9317C154.127 16.9317 153.123 17.2055 152.21 17.7532C151.323 18.3009 150.606 19.0702 150.058 20.0613C149.537 21.0262 149.276 22.1738 149.276 23.5039C149.276 24.8079 149.537 25.9554 150.058 26.9464C150.606 27.9114 151.323 28.6677 152.21 29.2154C153.123 29.7631 154.127 30.0369 155.222 30.0369C156.318 30.0369 157.309 29.7631 158.195 29.2154C159.108 28.6677 159.825 27.9114 160.347 26.9464C160.895 25.9554 161.169 24.8079 161.169 23.5039Z" fill="white"/>
<path d="M183.36 13.0196C184.038 13.0196 184.599 13.2544 185.042 13.7238C185.485 14.1672 185.707 14.7279 185.707 15.406V25.3425C185.707 28.107 184.938 30.2977 183.399 31.9147C181.86 33.5317 179.643 34.3402 176.749 34.3402C173.854 34.3402 171.637 33.5317 170.098 31.9147C168.585 30.2977 167.829 28.107 167.829 25.3425V15.406C167.829 14.7279 168.051 14.1672 168.494 13.7238C168.938 13.2544 169.498 13.0196 170.176 13.0196C170.854 13.0196 171.415 13.2544 171.858 13.7238C172.302 14.1672 172.524 14.7279 172.524 15.406V25.3425C172.524 26.9334 172.876 28.12 173.58 28.9024C174.284 29.6588 175.34 30.0369 176.749 30.0369C178.183 30.0369 179.252 29.6588 179.956 28.9024C180.661 28.12 181.013 26.9334 181.013 25.3425V15.406C181.013 14.7279 181.234 14.1672 181.678 13.7238C182.121 13.2544 182.682 13.0196 183.36 13.0196Z" fill="white"/>
<path d="M187.621 30.702C187.36 30.3369 187.242 29.8674 187.268 29.2936C187.295 28.7199 187.634 28.2244 188.286 27.8071C188.703 27.5463 189.146 27.442 189.616 27.4941C190.085 27.5202 190.542 27.7549 190.985 28.1983C191.741 28.9546 192.537 29.5414 193.371 29.9587C194.206 30.376 195.249 30.5846 196.501 30.5846C196.892 30.5585 197.322 30.5064 197.792 30.4281C198.261 30.3238 198.666 30.1152 199.005 29.8022C199.37 29.4632 199.552 28.9546 199.552 28.2765C199.552 27.7028 199.357 27.2464 198.965 26.9073C198.574 26.5683 198.053 26.2814 197.401 26.0467C196.775 25.8119 196.071 25.5903 195.288 25.3816C194.48 25.1469 193.645 24.8861 192.784 24.5992C191.95 24.3123 191.181 23.9472 190.476 23.5039C189.772 23.0344 189.198 22.4215 188.755 21.6652C188.312 20.9089 188.09 19.957 188.09 18.8094C188.09 17.5054 188.455 16.397 189.185 15.4842C189.916 14.5714 190.855 13.8672 192.002 13.3717C193.176 12.8762 194.401 12.6284 195.679 12.6284C196.488 12.6284 197.335 12.7328 198.222 12.9414C199.109 13.124 199.956 13.4369 200.765 13.8803C201.573 14.2976 202.252 14.8583 202.799 15.5625C203.086 15.9537 203.256 16.4231 203.308 16.9708C203.36 17.5185 203.112 18.014 202.564 18.4574C202.173 18.7703 201.717 18.9138 201.195 18.8877C200.674 18.8355 200.243 18.653 199.904 18.34C199.461 17.7662 198.861 17.3098 198.105 16.9708C197.375 16.6317 196.527 16.4622 195.562 16.4622C195.171 16.4622 194.74 16.5144 194.271 16.6187C193.828 16.6969 193.436 16.8925 193.097 17.2055C192.758 17.4924 192.589 17.9618 192.589 18.6138C192.589 19.2137 192.784 19.6962 193.176 20.0613C193.567 20.4003 194.088 20.6872 194.74 20.9219C195.419 21.1306 196.136 21.3392 196.892 21.5478C197.674 21.7565 198.47 22.0042 199.278 22.2911C200.087 22.578 200.83 22.9562 201.508 23.4256C202.186 23.8951 202.734 24.5079 203.151 25.2643C203.569 25.9945 203.777 26.9334 203.777 28.0809C203.777 29.411 203.386 30.5455 202.604 31.4844C201.821 32.4233 200.843 33.1405 199.67 33.636C198.496 34.1054 197.296 34.3402 196.071 34.3402C194.532 34.3402 192.993 34.0794 191.454 33.5578C189.916 33.0101 188.638 32.0581 187.621 30.702Z" fill="white"/>
</svg>
