<svg width="200" height="41" viewBox="0 0 200 41" fill="none" xmlns="http://www.w3.org/2000/svg">
<path d="M92.9736 14.2368C95.7577 14.2368 98.0484 15.0267 99.8135 16.6313C101.6 18.2555 102.461 20.734 102.461 23.9937C102.461 27.2606 101.558 29.8427 99.71 31.6909L99.709 31.6899C97.8966 33.5281 95.5783 34.4429 92.7812 34.4429C90.0221 34.4428 87.7449 33.6522 85.9805 32.0483C84.194 30.4243 83.3321 27.9455 83.332 24.686C83.332 21.4203 84.2223 18.8382 86.0439 16.9897L86.0449 16.9888C87.8818 15.1518 90.2004 14.2368 92.9736 14.2368ZM56.7959 6.62451C59.3725 6.62455 61.9842 7.06687 64.6299 7.94873L64.9697 8.06201L64.8369 8.39404L64.6826 8.77881L64.5596 9.0874L64.249 8.96826C61.9476 8.08308 59.7841 7.64504 57.7568 7.64502C55.75 7.64502 54.2292 8.07134 53.1543 8.8833C52.0913 9.68647 51.5576 10.789 51.5576 12.229C51.5577 13.9502 52.439 15.2955 54.2998 16.2749H54.2988C55.157 16.7037 56.0931 17.1078 57.1064 17.4878H57.1055C58.1627 17.8491 59.22 18.2613 60.2764 18.7251C61.344 19.1939 62.3232 19.7288 63.2129 20.3306C64.1361 20.9551 64.8758 21.8208 65.4365 22.9146H65.4375C66.009 24.0033 66.2832 25.382 66.2832 27.0308C66.2832 28.6877 65.8136 30.1223 64.8643 31.3159C63.9289 32.4919 62.785 33.3019 61.4355 33.7339L61.4307 33.7358C60.1352 34.1324 58.6269 34.3266 56.9111 34.3267C53.7004 34.3267 50.9388 33.5297 48.6436 31.9204L48.3818 31.7368L48.5508 31.4663L48.7432 31.1587L48.9424 30.8394L49.2383 31.0718C50.0452 31.7075 51.0964 32.2425 52.4023 32.6694H52.4014C53.7262 33.0687 55.0751 33.268 56.4492 33.2681C58.4728 33.2681 60.1747 32.8064 61.5713 31.8999C62.9562 30.9921 63.6484 29.6796 63.6484 27.9155C63.6484 25.9985 62.7497 24.5002 60.8916 23.3999V23.3989C60.0354 22.8954 59.0885 22.4288 58.0508 21.9985L58.0479 21.9976C57.0213 21.5613 55.9818 21.1118 54.9297 20.6499L54.9238 20.647C53.8593 20.1537 52.8832 19.6071 51.9961 19.0073C49.9525 17.6626 48.9229 15.7367 48.9229 13.2671C48.9229 11.3131 49.5821 9.70748 50.9131 8.48389L51.1719 8.25537C52.5047 7.1514 54.3971 6.62451 56.7959 6.62451ZM75.8906 14.2368C77.3126 14.2368 78.4881 14.378 79.4043 14.6724C80.2206 14.9056 80.8772 15.24 81.3428 15.6929L81.5312 15.895L81.5352 15.8999C82.2346 16.7673 82.5713 17.8733 82.5713 19.188V31.2222C82.5713 31.9227 82.7038 32.4201 82.9287 32.7524C83.2077 33.0978 83.4364 33.2165 83.6074 33.231L83.624 33.2319L83.6406 33.2349L84.0371 33.3071H85.5322V34.2886H82.8496C81.7545 34.2886 80.8597 34.0484 80.2139 33.52L80.208 33.5151C79.637 33.0257 79.2784 32.4869 79.2451 31.895L79.2061 31.2417V19.1489C79.206 17.1638 78.6897 16.0424 77.8145 15.5679C77.3349 15.3411 76.7235 15.2183 75.9668 15.2183C74.4277 15.2184 73.0368 15.828 71.7842 17.0806L71.7822 17.0835C70.4932 18.3473 69.9221 19.4169 69.9219 20.3022V34.2886H66.5566V14.3911H69.9219V17.7612C70.3941 17.0588 71.0206 16.3956 71.7959 15.772C73.0289 14.7545 74.3971 14.2368 75.8906 14.2368ZM128.969 14.4263C129.082 14.4827 129.175 14.5757 129.25 14.6655C129.325 14.7557 129.401 14.8677 129.479 14.9956C129.669 15.2676 129.801 15.5425 129.841 15.8149C129.895 16.0365 129.924 16.2511 129.924 16.4575C129.924 17.2007 129.759 17.9513 129.436 18.7056L129.433 18.7124L122.436 34.0913L122.346 34.2886H121.51L121.428 34.0688L116.176 19.9556L109.747 34.0913L109.657 34.2886H108.822L108.74 34.0688L101.589 14.8452L101.42 14.3911H104.831L104.912 14.6108L110.512 29.7632L115.65 18.5962L114.276 14.8442L114.11 14.3911H117.519L117.6 14.6108L123.2 29.7651L128.436 18.4312L128.441 18.4175L128.448 18.4058C128.721 17.9277 128.865 17.3462 128.865 16.6499C128.865 15.9685 128.679 15.5066 128.356 15.2046L128.103 14.9663L128.349 14.7202L128.58 14.4897L128.752 14.3179L128.969 14.4263ZM93.0508 15.2183C91.223 15.2183 89.7037 16.0282 88.4775 17.6958L88.4766 17.6978C87.254 19.3359 86.6211 21.6641 86.6211 24.7241C86.6211 27.7674 87.2062 29.9579 88.3164 31.3579C89.4295 32.7614 90.8949 33.4604 92.7432 33.4604C94.5722 33.4604 96.0904 32.6624 97.3154 31.022C98.5398 29.3568 99.1728 27.0269 99.1729 23.9937C99.1729 20.9237 98.5866 18.7204 97.4766 17.3208C96.3635 15.9176 94.8988 15.2183 93.0508 15.2183Z" fill="white" stroke="black" stroke-width="0.674298"/>
<path d="M165.587 4.77905V23.3748L173.456 14.5037L173.557 14.3904H174.842L174.345 14.9509L168.252 21.8289L176.371 33.7615L176.729 34.2888H173.223L173.122 34.1414L166.254 24.0447L165.587 24.8113V34.2888H160.789C159.035 34.2888 157.724 33.9592 156.98 33.1951L156.767 32.9812C156.383 32.5773 156.115 32.1739 156.025 31.7761C155.472 32.5162 154.812 33.1073 154.044 33.5427C152.978 34.1469 151.724 34.4421 150.293 34.4421C148.63 34.4421 147.281 34.0664 146.286 33.2732C145.288 32.4776 144.69 31.2971 144.462 29.7771C144.408 29.4517 144.381 29.1257 144.381 28.7996C144.381 28.4321 144.437 28.0439 144.546 27.6365C144.672 27.1633 145.02 26.6879 145.524 26.2097C146.071 25.6919 146.913 25.3015 148.006 25.0134C149.103 24.7245 150.485 24.53 152.146 24.4265L152.755 24.3757C153.353 24.3319 153.917 24.3103 154.445 24.3103C155 24.3103 155.515 24.3273 155.992 24.3601V18.4392C155.99 18.4328 155.986 18.4268 155.983 18.4207C155.958 18.3519 155.953 18.2853 155.953 18.2361C155.953 18.1394 155.973 18.0308 156 17.9226C156.029 17.7942 156.008 17.5925 155.869 17.2917L155.863 17.2781L155.857 17.2634C155.74 16.9342 155.575 16.6139 155.36 16.3035C155.184 16.0484 154.844 15.7988 154.284 15.5798L154.272 15.5759V15.575C153.741 15.3437 153.022 15.2185 152.1 15.2185C151.192 15.2185 150.108 15.3913 148.846 15.7449L148.842 15.7458C147.593 16.0771 146.703 16.4011 146.152 16.7126L145.86 16.8777L145.694 16.5867L145.54 16.3181L145.357 15.9978L145.692 15.8445C148.015 14.7746 150.382 14.2371 152.792 14.2371C154.129 14.2371 155.258 14.3566 156.168 14.6042C157.076 14.8514 157.79 15.2324 158.271 15.7712C158.981 16.5622 159.357 17.4213 159.357 18.3416V31.2214C159.357 31.9221 159.491 32.4193 159.716 32.7517C159.96 33.0535 160.164 33.1831 160.326 33.2205L160.395 33.2312L160.41 33.2322L160.427 33.2351L160.817 33.3064H162.222V4.77905H165.587ZM184.492 14.2371C186.666 14.2371 188.516 14.8888 190.02 16.2039C191.548 17.5413 192.288 19.5052 192.288 22.033V22.7546H178.531C178.476 23.3406 178.447 23.9456 178.447 24.5701C178.447 27.7205 178.996 29.964 180.032 31.364L180.235 31.6189C181.271 32.8527 182.58 33.4607 184.185 33.4607C186.714 33.4607 188.953 33.0813 190.907 32.3298L191.21 32.2126L191.338 32.5115L191.453 32.781L191.591 33.1013L191.266 33.2283C189.17 34.0403 186.808 34.4421 184.185 34.4421C181.549 34.4421 179.372 33.6491 177.686 32.0427C175.979 30.4177 175.158 27.9407 175.158 24.6853C175.158 21.4225 176.021 18.8427 177.789 16.9939C179.549 15.1539 181.793 14.2371 184.492 14.2371ZM154.215 25.2917C153.536 25.2917 152.856 25.3286 152.177 25.4041L152.178 25.405C151.218 25.5187 150.439 25.681 149.835 25.8884C149.228 26.097 148.822 26.3426 148.58 26.6052C148.063 27.1671 147.785 27.9612 147.785 29.03C147.785 29.1258 147.788 29.2288 147.794 29.3386L147.821 29.6892L147.822 29.6941C147.935 31.0178 148.265 31.9579 148.772 32.5623C149.268 33.1529 149.965 33.4607 150.908 33.4607C152.182 33.4607 153.323 33.0306 154.341 32.158L154.718 31.8152C155.535 31.0271 155.932 30.3087 155.992 29.6619V25.3474C155.409 25.311 154.817 25.2918 154.215 25.2917ZM184.339 15.2185C182.992 15.2185 181.77 15.8034 180.669 17.0261C179.66 18.1725 178.983 19.7468 178.655 21.7722H188.991C188.927 19.5203 188.464 17.9 187.648 16.8582C186.788 15.7585 185.693 15.2186 184.339 15.2185ZM142.062 31.2214C142.062 31.9219 142.194 32.4193 142.419 32.7517C142.663 33.0539 142.868 33.1831 143.03 33.2205L143.098 33.2312L143.114 33.2322L143.13 33.2351L143.521 33.3064H145.021V34.2888H143.493C141.206 34.2888 139.603 33.6927 138.924 32.3337C138.781 32.0481 138.695 31.7649 138.695 31.491V31.4861H138.696L139.032 5.47144C137.573 5.59971 136.516 6.39413 135.851 7.41479L135.849 7.41772C135.137 8.48478 134.752 10.2964 134.752 12.9207V14.3904H137.789V15.6863H134.752V34.2888H131.387V15.6863H130.579V14.3904H131.387V12.9207C131.387 10.0929 131.994 7.99386 133.295 6.72046C134.589 5.4281 136.64 4.80673 139.366 4.78003L139.369 4.77905V4.78003L139.371 4.77905H139.38L141.729 4.81714L142.062 4.823V31.2214Z" fill="white" stroke="black" stroke-width="0.674298"/>
<path d="M195.499 4.71244V5.72817H194.344V8.81846H193.248V5.72817H192.093V4.71244H195.499Z" fill="white"/>
<path d="M200 4.65088V8.83693H198.904V6.80546L198.1 7.75963H197.772L196.969 6.80546V8.83693H195.873V4.65088H196.26L197.936 6.4361L199.613 4.65088H200Z" fill="white"/>
<path d="M21.6533 0.00390625L21.6367 13.2031L26.6924 1.00977L29.2705 2.0791L24.1738 14.3691L33.6309 5.00977L35.5938 6.99316L26.2529 16.2383L38.4004 11.2217L39.4658 13.8008L27.2666 18.8389H40.4648V21.6299H27.2363L39.4551 26.7012L38.3848 29.2783L26.167 24.208L35.5088 33.5732L33.5332 35.5439L24.2305 26.2178L29.2871 38.3818L26.71 39.4531L21.6191 27.2051L21.6025 40.4688L18.8115 40.4648L18.8281 27.2627L13.7725 39.458L11.1943 38.3896L16.29 26.0986L6.83398 35.459L4.87109 33.4756L14.2109 24.2305L2.06445 29.2471L1 26.668L13.1992 21.6299H0V18.8389H13.2305L1.01074 13.7676L2.08008 11.1895L14.2979 16.2598L4.95605 6.89453L6.93262 4.92383L16.2324 14.2471L11.1777 2.08691L13.7549 1.01562L18.8457 13.2646L18.8633 0L21.6533 0.00390625Z" fill="#8FD5F5"/>
</svg>
