<svg width="200" height="50" viewBox="0 0 200 50" fill="none" xmlns="http://www.w3.org/2000/svg">
<path d="M62.4456 30.4832H55.0514L53.8279 34.0207H49.918L56.5941 15.4288H60.9295L67.6056 34.0207H63.6691L62.4456 30.4832ZM61.4349 27.5043L58.7485 19.7377L56.0621 27.5043H61.4349Z" fill="white"/>
<path d="M82.9478 19.2855V34.0207H79.1975V32.1589C78.7187 32.7972 78.0893 33.3026 77.3091 33.675C76.5466 34.0296 75.7132 34.2069 74.8089 34.2069C73.6563 34.2069 72.6367 33.9676 71.7501 33.4888C70.8635 32.9923 70.1631 32.2742 69.6489 31.3344C69.1524 30.3768 68.9041 29.242 68.9041 27.9298V19.2855H72.6278V27.3979C72.6278 28.5682 72.9204 29.4725 73.5056 30.1109C74.0907 30.7315 74.8886 31.0418 75.8994 31.0418C76.9278 31.0418 77.7346 30.7315 78.3198 30.1109C78.9049 29.4725 79.1975 28.5682 79.1975 27.3979V19.2855H82.9478Z" fill="white"/>
<path d="M89.8934 22.3443V29.4725C89.8934 29.969 90.0087 30.3325 90.2392 30.563C90.4874 30.7758 90.8953 30.8822 91.4627 30.8822H93.1916V34.0207H90.8509C87.7124 34.0207 86.1431 32.4958 86.1431 29.4459V22.3443H84.3876V19.2855H86.1431V15.6416H89.8934V19.2855H93.1916V22.3443H89.8934Z" fill="white"/>
<path d="M101.349 34.2601C99.9305 34.2601 98.6538 33.9498 97.5189 33.3292C96.3841 32.6909 95.4886 31.7954 94.8325 30.6428C94.1942 29.4902 93.875 28.1603 93.875 26.6531C93.875 25.1459 94.203 23.816 94.8591 22.6634C95.5329 21.5109 96.4461 20.6243 97.5987 20.0036C98.7513 19.3653 100.037 19.0461 101.455 19.0461C102.874 19.0461 104.16 19.3653 105.312 20.0036C106.465 20.6243 107.369 21.5109 108.025 22.6634C108.699 23.816 109.036 25.1459 109.036 26.6531C109.036 28.1603 108.69 29.4902 107.999 30.6428C107.325 31.7954 106.403 32.6909 105.232 33.3292C104.08 33.9498 102.785 34.2601 101.349 34.2601ZM101.349 31.0152C102.023 31.0152 102.652 30.8556 103.237 30.5364C103.84 30.1995 104.319 29.703 104.674 29.0469C105.028 28.3909 105.206 27.5929 105.206 26.6531C105.206 25.2523 104.833 24.1795 104.089 23.4348C103.362 22.6723 102.466 22.2911 101.402 22.2911C100.338 22.2911 99.4428 22.6723 98.7158 23.4348C98.0065 24.1795 97.6519 25.2523 97.6519 26.6531C97.6519 28.0539 97.9977 29.1356 98.6892 29.8981C99.3985 30.6428 100.285 31.0152 101.349 31.0152Z" fill="white"/>
<path d="M129.003 19.0727C130.811 19.0727 132.265 19.6313 133.365 20.7484C134.482 21.8478 135.04 23.3904 135.04 25.3764V34.0207H131.317V25.8818C131.317 24.7292 131.024 23.8515 130.439 23.2486C129.854 22.628 129.056 22.3177 128.045 22.3177C127.035 22.3177 126.228 22.628 125.625 23.2486C125.04 23.8515 124.747 24.7292 124.747 25.8818V34.0207H121.023V25.8818C121.023 24.7292 120.731 23.8515 120.146 23.2486C119.56 22.628 118.763 22.3177 117.752 22.3177C116.723 22.3177 115.908 22.628 115.305 23.2486C114.72 23.8515 114.427 24.7292 114.427 25.8818V34.0207H110.703V19.2855H114.427V21.0676C114.906 20.4469 115.518 19.9593 116.262 19.6047C117.025 19.25 117.858 19.0727 118.763 19.0727C119.915 19.0727 120.944 19.321 121.848 19.8175C122.752 20.2962 123.453 20.9878 123.949 21.8921C124.428 21.041 125.119 20.3583 126.024 19.8441C126.946 19.3298 127.939 19.0727 129.003 19.0727Z" fill="white"/>
<path d="M136.553 26.5999C136.553 25.1104 136.845 23.7894 137.43 22.6368C138.033 21.4843 138.84 20.5977 139.851 19.977C140.879 19.3564 142.023 19.0461 143.282 19.0461C144.381 19.0461 145.339 19.2678 146.154 19.7111C146.988 20.1544 147.653 20.7129 148.149 21.3867V19.2855H151.9V34.0207H148.149V31.8663C147.671 32.5579 147.006 33.1342 146.154 33.5952C145.321 34.0385 144.355 34.2601 143.255 34.2601C142.014 34.2601 140.879 33.941 139.851 33.3026C138.84 32.6643 138.033 31.7688 137.43 30.6162C136.845 29.4459 136.553 28.1071 136.553 26.5999ZM148.149 26.6531C148.149 25.7488 147.972 24.9775 147.617 24.3391C147.263 23.683 146.784 23.1865 146.181 22.8496C145.578 22.495 144.931 22.3177 144.239 22.3177C143.548 22.3177 142.91 22.4861 142.324 22.823C141.739 23.1599 141.26 23.6564 140.888 24.3125C140.533 24.9509 140.356 25.7133 140.356 26.5999C140.356 27.4865 140.533 28.2667 140.888 28.9405C141.26 29.5966 141.739 30.102 142.324 30.4566C142.927 30.8113 143.566 30.9886 144.239 30.9886C144.931 30.9886 145.578 30.8201 146.181 30.4832C146.784 30.1286 147.263 29.6321 147.617 28.9937C147.972 28.3377 148.149 27.5575 148.149 26.6531Z" fill="white"/>
<path d="M158.808 22.3443V29.4725C158.808 29.969 158.923 30.3325 159.154 30.563C159.402 30.7758 159.81 30.8822 160.377 30.8822H162.106V34.0207H159.766C156.627 34.0207 155.058 32.4958 155.058 29.4459V22.3443H153.302V19.2855H155.058V15.6416H158.808V19.2855H162.106V22.3443H158.808Z" fill="white"/>
<path d="M165.609 17.53C164.953 17.53 164.403 17.3261 163.96 16.9183C163.534 16.4927 163.322 15.9696 163.322 15.349C163.322 14.7284 163.534 14.2142 163.96 13.8063C164.403 13.3808 164.953 13.168 165.609 13.168C166.265 13.168 166.806 13.3808 167.231 13.8063C167.675 14.2142 167.896 14.7284 167.896 15.349C167.896 15.9696 167.675 16.4927 167.231 16.9183C166.806 17.3261 166.265 17.53 165.609 17.53ZM167.444 19.2855V34.0207H163.721V19.2855H167.444Z" fill="white"/>
<path d="M176.602 34.2601C175.184 34.2601 173.907 33.9498 172.772 33.3292C171.638 32.6909 170.742 31.7954 170.086 30.6428C169.448 29.4902 169.128 28.1603 169.128 26.6531C169.128 25.1459 169.456 23.816 170.113 22.6634C170.786 21.5109 171.7 20.6243 172.852 20.0036C174.005 19.3653 175.29 19.0461 176.709 19.0461C178.127 19.0461 179.413 19.3653 180.566 20.0036C181.718 20.6243 182.622 21.5109 183.279 22.6634C183.952 23.816 184.289 25.1459 184.289 26.6531C184.289 28.1603 183.944 29.4902 183.252 30.6428C182.578 31.7954 181.656 32.6909 180.486 33.3292C179.333 33.9498 178.039 34.2601 176.602 34.2601ZM176.602 31.0152C177.276 31.0152 177.906 30.8556 178.491 30.5364C179.094 30.1995 179.573 29.703 179.927 29.0469C180.282 28.3909 180.459 27.5929 180.459 26.6531C180.459 25.2523 180.087 24.1795 179.342 23.4348C178.615 22.6723 177.72 22.2911 176.656 22.2911C175.592 22.2911 174.696 22.6723 173.969 23.4348C173.26 24.1795 172.905 25.2523 172.905 26.6531C172.905 28.0539 173.251 29.1356 173.943 29.8981C174.652 30.6428 175.539 31.0152 176.602 31.0152Z" fill="white"/>
<path d="M194.122 19.0727C195.878 19.0727 197.296 19.6313 198.378 20.7484C199.46 21.8478 200.001 23.3904 200.001 25.3764V34.0207H196.277V25.8818C196.277 24.7115 195.984 23.816 195.399 23.1954C194.814 22.557 194.016 22.2379 193.005 22.2379C191.977 22.2379 191.161 22.557 190.558 23.1954C189.973 23.816 189.681 24.7115 189.681 25.8818V34.0207H185.957V19.2855H189.681V21.1208C190.177 20.4824 190.807 19.9859 191.569 19.6313C192.349 19.2589 193.2 19.0727 194.122 19.0727Z" fill="white"/>
<path fill-rule="evenodd" clip-rule="evenodd" d="M19.7624 14.4135C14.1338 14.4135 9.57098 18.9764 9.57098 24.605V25.3181H0V24.605C0 13.6905 8.84794 4.84253 19.7624 4.84253V14.4135Z" fill="url(#paint0_linear_246_14345)"/>
<path fill-rule="evenodd" clip-rule="evenodd" d="M27.8145 25.3182V24.605H37.3855V25.3182C37.3855 36.2327 28.5375 45.0806 17.623 45.0806V35.5096C23.2516 35.5096 27.8145 30.9468 27.8145 25.3182Z" fill="url(#paint1_linear_246_14345)"/>
<path d="M17.9795 49.9229L1.57617 40.2949L17.9795 31.0234V49.9229ZM35.8076 9.62793L19.4043 18.8994V0L35.8076 9.62793Z" fill="#4951FF"/>
<defs>
<linearGradient id="paint0_linear_246_14345" x1="18.9179" y1="10.1348" x2="2.70223" y2="10.5852" gradientUnits="userSpaceOnUse">
<stop stop-color="#3A41CE"/>
<stop offset="1" stop-color="#4951FF"/>
</linearGradient>
<linearGradient id="paint1_linear_246_14345" x1="18.4676" y1="39.7884" x2="34.6832" y2="39.338" gradientUnits="userSpaceOnUse">
<stop stop-color="#3A41CE"/>
<stop offset="1" stop-color="#4951FF"/>
</linearGradient>
</defs>
</svg>
