<svg width="200" height="45" viewBox="0 0 200 45" fill="none" xmlns="http://www.w3.org/2000/svg">
<path d="M54.0078 37.0699L56.2537 36.5084V12.5526L54.0078 11.9912V11.4297H64.1142C67.9072 11.4297 70.6896 12.0411 72.4613 13.2638C74.258 14.4616 75.1563 16.0337 75.1563 17.9801C75.1563 19.3276 74.7695 20.4131 73.996 21.2366C73.2224 22.0601 72.2367 22.6715 71.0389 23.0707C69.7663 23.5199 68.3938 23.757 66.9215 23.7819V23.9691C68.7431 24.0439 70.3277 24.3184 71.6752 24.7926C73.0477 25.2417 74.1831 25.9404 75.0815 26.8887C76.0048 27.8369 76.4664 29.0472 76.4664 30.5195C76.4664 32.7404 75.5556 34.4872 73.7339 35.7598C71.9123 37.0075 68.9553 37.6314 64.8628 37.6314H54.0078V37.0699ZM64.1142 23.4076C64.9377 23.4076 65.6988 23.183 66.3975 22.7338C67.1211 22.2597 67.6951 21.6109 68.1193 20.7874C68.5685 19.939 68.7931 19.0032 68.7931 17.9801C68.7931 16.8821 68.5685 15.9089 68.1193 15.0605C67.6951 14.2121 67.1211 13.5508 66.3975 13.0767C65.6988 12.6025 64.9377 12.3655 64.1142 12.3655H62.4298V23.4076H64.1142ZM64.8628 36.6956C66.4099 36.6956 67.6701 36.1466 68.6433 35.0486C69.6165 33.9507 70.1031 32.441 70.1031 30.5195C70.1031 28.598 69.6165 27.0883 68.6433 25.9903C67.6701 24.8924 66.4099 24.3434 64.8628 24.3434H62.4298V36.6956H64.8628Z" fill="#6366FF"/>
<path d="M77.2033 37.0699L79.4492 36.5084V12.5526L77.2033 11.9912V11.4297H82.0694C84.3152 11.4297 85.4381 12.5526 85.4381 14.7985V36.5084L87.684 37.0699V37.6314H77.2033V37.0699Z" fill="#6366FF"/>
<path d="M97.9717 38.1928C94.8774 38.1928 92.4444 37.3195 90.6726 35.5727C88.9259 33.8009 88.0525 31.3679 88.0525 28.2736C88.0525 25.1793 88.9259 22.7588 90.6726 21.012C92.4444 19.2403 94.8774 18.3544 97.9717 18.3544C101.066 18.3544 103.487 19.2403 105.233 21.012C107.005 22.7588 107.891 25.1793 107.891 28.2736C107.891 31.3679 107.005 33.8009 105.233 35.5727C103.487 37.3195 101.066 38.1928 97.9717 38.1928ZM97.9717 37.4442C98.9698 37.4442 99.8058 36.7455 100.48 35.3481C101.178 33.9507 101.528 31.5925 101.528 28.2736C101.528 24.9548 101.178 22.5966 100.48 21.1992C99.8058 19.8018 98.9698 19.103 97.9717 19.103C96.9735 19.103 96.1251 19.8018 95.4264 21.1992C94.7526 22.5966 94.4157 24.9548 94.4157 28.2736C94.4157 31.5925 94.7526 33.9507 95.4264 35.3481C96.1251 36.7455 96.9735 37.4442 97.9717 37.4442Z" fill="#6366FF"/>
<path d="M117.823 38.1928C116.276 38.1928 114.891 37.856 113.668 37.1822C113.07 36.8578 112.583 36.5085 112.209 36.1341C111.809 36.6831 111.373 37.1073 110.899 37.4068C110.674 37.5565 110.424 37.6938 110.15 37.8185H109.214V31.4553H110.711C111.036 32.5033 111.51 33.4765 112.134 34.3749C113.456 36.2963 115.103 37.2571 117.075 37.2571C118.123 37.2571 118.909 37.0075 119.433 36.5084C119.982 35.9844 120.256 35.2358 120.256 34.2626C120.256 33.4391 119.882 32.7529 119.133 32.2039C118.41 31.6299 117.262 30.9312 115.69 30.1078C114.342 29.434 113.244 28.8351 112.396 28.3111C111.572 27.7621 110.861 27.0883 110.262 26.2898C109.688 25.4663 109.401 24.5056 109.401 23.4076C109.401 21.9104 110.038 20.7001 111.31 19.7768C112.608 18.8285 114.592 18.3544 117.262 18.3544C118.584 18.3544 119.807 18.7038 120.93 19.4025C121.479 19.7269 121.953 20.0638 122.352 20.4131C122.677 19.964 123.114 19.5397 123.662 19.1405C124.087 18.8909 124.336 18.7537 124.411 18.7287H125.347V25.092H123.85C123.475 24.019 123.014 23.0582 122.465 22.2098C121.217 20.2634 119.732 19.2902 118.01 19.2902C117.337 19.2902 116.763 19.5397 116.289 20.0388C115.814 20.5379 115.577 21.1617 115.577 21.9104C115.577 22.8586 115.977 23.6571 116.775 24.3059C117.574 24.9298 118.784 25.6535 120.406 26.4769C121.729 27.1507 122.777 27.7496 123.55 28.2736C124.349 28.7727 125.022 29.3966 125.571 30.1452C126.145 30.8938 126.432 31.7672 126.432 32.7654C126.432 36.3837 123.563 38.1928 117.823 38.1928Z" fill="#6366FF"/>
<path d="M136.166 38.1928C134.619 38.1928 133.234 37.856 132.011 37.1822C131.412 36.8578 130.926 36.5085 130.551 36.1341C130.152 36.6831 129.715 37.1073 129.241 37.4068C129.017 37.5565 128.767 37.6938 128.493 37.8185H127.557V31.4553H129.054C129.378 32.5033 129.853 33.4765 130.476 34.3749C131.799 36.2963 133.446 37.2571 135.417 37.2571C136.465 37.2571 137.251 37.0075 137.775 36.5084C138.324 35.9844 138.599 35.2358 138.599 34.2626C138.599 33.4391 138.225 32.7529 137.476 32.2039C136.752 31.6299 135.604 30.9312 134.032 30.1078C132.685 29.434 131.587 28.8351 130.738 28.3111C129.915 27.7621 129.204 27.0883 128.605 26.2898C128.031 25.4663 127.744 24.5056 127.744 23.4076C127.744 21.9104 128.38 20.7001 129.653 19.7768C130.951 18.8285 132.934 18.3544 135.604 18.3544C136.927 18.3544 138.15 18.7038 139.273 19.4025C139.822 19.7269 140.296 20.0638 140.695 20.4131C141.019 19.964 141.456 19.5397 142.005 19.1405C142.429 18.8909 142.679 18.7537 142.754 18.7287H143.69V25.092H142.192C141.818 24.019 141.356 23.0582 140.807 22.2098C139.56 20.2634 138.075 19.2902 136.353 19.2902C135.679 19.2902 135.105 19.5397 134.631 20.0388C134.157 20.5379 133.92 21.1617 133.92 21.9104C133.92 22.8586 134.319 23.6571 135.118 24.3059C135.916 24.9298 137.127 25.6535 138.749 26.4769C140.071 27.1507 141.119 27.7496 141.893 28.2736C142.691 28.7727 143.365 29.3966 143.914 30.1452C144.488 30.8938 144.775 31.7672 144.775 32.7654C144.775 36.3837 141.905 38.1928 136.166 38.1928Z" fill="#6366FF"/>
<path d="M155.631 38.1928C152.537 38.1928 150.104 37.3195 148.332 35.5727C146.586 33.8009 145.712 31.3679 145.712 28.2736C145.712 25.1793 146.586 22.7588 148.332 21.012C150.104 19.2403 152.537 18.3544 155.631 18.3544C158.726 18.3544 161.146 19.2403 162.893 21.012C164.665 22.7588 165.551 25.1793 165.551 28.2736C165.551 31.3679 164.665 33.8009 162.893 35.5727C161.146 37.3195 158.726 38.1928 155.631 38.1928ZM155.631 37.4442C156.63 37.4442 157.466 36.7455 158.139 35.3481C158.838 33.9507 159.187 31.5925 159.187 28.2736C159.187 24.9548 158.838 22.5966 158.139 21.1992C157.466 19.8018 156.63 19.103 155.631 19.103C154.633 19.103 153.785 19.8018 153.086 21.1992C152.412 22.5966 152.076 24.9548 152.076 28.2736C152.076 31.5925 152.412 33.9507 153.086 35.3481C153.785 36.7455 154.633 37.4442 155.631 37.4442Z" fill="#6366FF"/>
<path d="M166.687 37.0699L168.933 36.5084V20.0388L166.687 19.4774V18.9159H170.056C171.528 18.9159 172.688 19.39 173.537 20.3383C173.861 20.7126 174.136 21.1742 174.36 21.7232C174.734 21.0245 175.134 20.463 175.558 20.0388C176.681 18.9159 177.966 18.3544 179.413 18.3544C180.861 18.3544 182.133 18.6788 183.231 19.3276C184.329 19.9515 185.178 20.8124 185.777 21.9104C186.151 21.1867 186.55 20.6003 186.974 20.1511C188.122 18.9533 189.407 18.3544 190.83 18.3544C192.152 18.3544 193.338 18.6289 194.386 19.1779C195.459 19.7269 196.282 20.4755 196.856 21.4238C197.455 22.372 197.754 23.4076 197.754 24.5305V36.5084L200 37.0699V37.6314H195.134C192.888 37.6314 191.766 36.5084 191.766 34.2626V24.5305C191.766 22.9085 191.516 21.6983 191.017 20.8997C190.518 20.0762 189.956 19.6645 189.333 19.6645C188.609 19.6645 187.873 20.1636 187.124 21.1617C186.825 21.6359 186.563 22.1349 186.338 22.659V36.5084L188.584 37.0699V37.6314H178.103V37.0699L180.349 36.5084V24.5305C180.349 22.9085 180.1 21.6983 179.6 20.8997C179.101 20.0762 178.54 19.6645 177.916 19.6645C177.192 19.6645 176.456 20.1636 175.708 21.1617C175.408 21.6359 175.146 22.1349 174.922 22.659V36.5084L177.167 37.0699V37.6314H166.687V37.0699Z" fill="#6366FF"/>
<path fill-rule="evenodd" clip-rule="evenodd" d="M23.5403 44.7785C23.2988 44.826 23.0484 44.8418 22.7946 44.8225C14.9539 44.2276 7.53256 39.8967 3.30421 32.573C-0.924212 25.2492 -0.964154 16.6565 2.44116 9.5687C2.93554 8.53969 4.00726 7.92095 5.1456 8.00732C8.06748 8.22901 10.9311 8.96953 13.593 10.1904C15.6015 6.27403 18.5732 2.93305 22.1953 0.480106C23.1405 -0.160035 24.3768 -0.160035 25.3221 0.480105C28.895 2.89975 31.835 6.18347 33.842 10.0312C36.4029 8.90502 39.1423 8.21921 41.9349 8.00732C43.0733 7.92095 44.145 8.53969 44.6394 9.5687C48.0447 16.6565 48.0047 25.2492 43.7763 32.573C39.548 39.8967 32.1266 44.2276 24.2859 44.8225C24.0322 44.8418 23.7817 44.826 23.5403 44.7785ZM29.2849 40.3388C33.9847 38.7404 38.1417 35.4966 40.8163 30.8641C44.3765 24.6978 44.4924 17.4871 41.748 11.4539C39.4944 11.6725 37.2888 12.2489 35.2193 13.1589C36.2289 15.9356 36.7796 18.9326 36.7796 22.0582C36.7796 29.1816 33.9194 35.6371 29.2849 40.3388ZM30.816 11.6205C29.1393 8.40151 26.7102 5.63534 23.7587 3.55413C20.744 5.67991 18.2742 8.5203 16.5946 11.828C19.2679 13.5375 21.6428 15.7864 23.5403 18.5265C25.5155 15.6741 28.0081 13.354 30.816 11.6205ZM25.4768 21.8415C27.1941 18.912 29.5073 16.5449 32.1748 14.806C32.9446 17.0828 33.3617 19.5219 33.3617 22.0582C33.3617 27.9136 31.1389 33.2505 27.4844 37.2706C28.4732 32.1924 27.8751 26.7838 25.4768 21.8415ZM21.6038 21.8415C19.9636 19.0438 17.7801 16.7589 15.2634 15.0443C14.5442 17.2528 14.1557 19.6102 14.1557 22.0582C14.1557 27.6133 16.1563 32.7018 19.4821 36.6419C18.6596 31.7479 19.3041 26.5804 21.6038 21.8415ZM23.5403 38.9411C24.8233 34.8609 24.8761 30.4097 23.5403 26.19C22.2044 30.4097 22.2572 34.8609 23.5403 38.9411ZM6.26418 30.8641C9.06029 35.7071 13.4765 39.0322 18.4393 40.5464C13.6832 35.828 10.7378 29.2871 10.7378 22.0582C10.7378 18.9961 11.2663 16.0575 12.237 13.3285C10.0597 12.3203 7.72306 11.6858 5.33252 11.4539C2.58814 17.4871 2.70406 24.6978 6.26418 30.8641Z" fill="#EF898B"/>
</svg>
