<svg width="200" height="36" viewBox="0 0 200 36" fill="none" xmlns="http://www.w3.org/2000/svg">
<path d="M34.0476 24.3977C41.5001 20.2167 50.9292 22.8056 55.2018 30.2059L48.7718 33.9183C41.2852 38.2407 31.7101 35.6216 27.4658 28.0903L34.0476 24.3977Z" fill="#FF6665"/>
<path d="M31.3211 21.4665C35.5784 14.0926 45.0073 11.5661 52.3812 15.8234L48.527 22.4992C44.2696 29.8731 34.8407 32.3996 27.4668 28.1423L31.3211 21.4665Z" fill="#FF6665" fill-opacity="0.8"/>
<path d="M27.1338 20.7523C27.1338 11.8092 34.3836 4.55933 43.3267 4.55933V12.116C43.3267 21.0591 36.0769 28.3089 27.1338 28.3089V20.7523Z" fill="#FF6665" fill-opacity="0.8"/>
<path d="M23.3132 21.0602C19.0559 13.6863 21.5824 4.25732 28.9562 0L32.8105 6.67579C37.0678 14.0497 34.5414 23.4786 27.1675 27.736L23.3132 21.0602Z" fill="#FF6665" fill-opacity="0.8"/>
<path d="M27.1339 19.6727C27.1339 11.3258 20.3674 4.55933 12.0205 4.55933V13.1955C12.0205 21.5424 18.787 28.3089 27.1339 28.3089V19.6727Z" fill="#FF6665" fill-opacity="0.8"/>
<path d="M23.8805 21.4665C19.6232 14.0926 10.1942 11.5661 2.82031 15.8234L6.67458 22.4992C10.9319 29.8731 20.3609 32.3996 27.7347 28.1423L23.8805 21.4665Z" fill="#FF6665" fill-opacity="0.8"/>
<path d="M21.1542 24.3977C13.7017 20.2167 4.2726 22.8056 0 30.2059L6.42996 33.9183C13.9166 38.2407 23.4917 35.6216 27.736 28.0903L21.1542 24.3977Z" fill="#FF6665"/>
<path d="M82.6801 10.3706V27.1065H79.3233V16.221L74.8396 27.1065H72.298L67.7904 16.221V27.1065H64.4336V10.3706H68.2459L73.5688 22.8146L78.8917 10.3706H82.6801Z" fill="#00D9FF"/>
<path d="M86.7421 12.2408C86.1506 12.2408 85.6551 12.057 85.2555 11.6893C84.8719 11.3057 84.6801 10.8342 84.6801 10.2747C84.6801 9.71524 84.8719 9.25169 85.2555 8.88404C85.6551 8.50041 86.1506 8.30859 86.7421 8.30859C87.3335 8.30859 87.821 8.50041 88.2047 8.88404C88.6043 9.25169 88.8041 9.71524 88.8041 10.2747C88.8041 10.8342 88.6043 11.3057 88.2047 11.6893C87.821 12.057 87.3335 12.2408 86.7421 12.2408ZM88.3965 13.8233V27.1065H85.0397V13.8233H88.3965Z" fill="#00D9FF"/>
<path d="M98.1148 13.6315C99.6973 13.6315 100.976 14.135 101.951 15.142C102.926 16.1331 103.414 17.5237 103.414 19.314V27.1065H100.057V19.7696C100.057 18.7146 99.7932 17.9074 99.2657 17.3479C98.7382 16.7725 98.0189 16.4847 97.1078 16.4847C96.1807 16.4847 95.4454 16.7725 94.9019 17.3479C94.3744 17.9074 94.1107 18.7146 94.1107 19.7696V27.1065H90.7539V13.8233H94.1107V15.4777C94.5583 14.9023 95.1257 14.4547 95.813 14.135C96.5164 13.7993 97.2836 13.6315 98.1148 13.6315Z" fill="#00D9FF"/>
<path d="M104.784 20.417C104.784 19.0742 105.047 17.8834 105.575 16.8444C106.118 15.8054 106.854 15.0062 107.781 14.4467C108.708 13.8872 109.739 13.6075 110.874 13.6075C111.737 13.6075 112.56 13.7993 113.343 14.1829C114.127 14.5506 114.75 15.0461 115.214 15.6695V9.36358H118.618V27.1065H115.214V25.1404C114.798 25.7958 114.215 26.3233 113.463 26.7229C112.712 27.1225 111.841 27.3223 110.85 27.3223C109.731 27.3223 108.708 27.0346 107.781 26.4591C106.854 25.8837 106.118 25.0765 105.575 24.0375C105.047 22.9825 104.784 21.7756 104.784 20.417ZM115.238 20.4649C115.238 19.6497 115.078 18.9544 114.758 18.3789C114.438 17.7875 114.007 17.3399 113.463 17.0362C112.92 16.7165 112.336 16.5567 111.713 16.5567C111.09 16.5567 110.514 16.7085 109.987 17.0122C109.459 17.3159 109.028 17.7635 108.692 18.3549C108.372 18.9304 108.212 19.6177 108.212 20.417C108.212 21.2162 108.372 21.9195 108.692 22.5269C109.028 23.1184 109.459 23.5739 109.987 23.8936C110.53 24.2133 111.106 24.3731 111.713 24.3731C112.336 24.3731 112.92 24.2213 113.463 23.9176C114.007 23.5979 114.438 23.1503 114.758 22.5749C115.078 21.9834 115.238 21.2801 115.238 20.4649Z" fill="#00D9FF"/>
<path d="M127.028 16.5806H124.702V27.1065H121.297V16.5806H119.787V13.8233H121.297V13.1519C121.297 11.5215 121.761 10.3227 122.688 9.55539C123.615 8.78813 125.014 8.42848 126.884 8.47643V11.3057C126.069 11.2897 125.501 11.4256 125.182 11.7133C124.862 12.001 124.702 12.5205 124.702 13.2718V13.8233H127.028V16.5806Z" fill="#00D9FF"/>
<path d="M140.784 13.8233V27.1065H137.403V25.4281C136.972 26.0036 136.404 26.4591 135.701 26.7948C135.014 27.1145 134.262 27.2744 133.447 27.2744C132.408 27.2744 131.489 27.0586 130.69 26.627C129.891 26.1794 129.259 25.532 128.796 24.6848C128.348 23.8217 128.124 22.7987 128.124 21.6158V13.8233H131.481V21.1363C131.481 22.1912 131.745 23.0065 132.272 23.5819C132.8 24.1414 133.519 24.4211 134.43 24.4211C135.357 24.4211 136.085 24.1414 136.612 23.5819C137.14 23.0065 137.403 22.1912 137.403 21.1363V13.8233H140.784Z" fill="#00D9FF"/>
<path d="M146.494 9.36358V27.1065H143.137V9.36358H146.494Z" fill="#00D9FF"/>
<path d="M156.212 13.6315C157.795 13.6315 159.073 14.135 160.048 15.142C161.023 16.1331 161.511 17.5237 161.511 19.314V27.1065H158.154V19.7696C158.154 18.7146 157.89 17.9074 157.363 17.3479C156.835 16.7725 156.116 16.4847 155.205 16.4847C154.278 16.4847 153.543 16.7725 152.999 17.3479C152.472 17.9074 152.208 18.7146 152.208 19.7696V27.1065H148.851V13.8233H152.208V15.4777C152.656 14.9023 153.223 14.4547 153.91 14.135C154.614 13.7993 155.381 13.6315 156.212 13.6315Z" fill="#00D9FF"/>
<path d="M176.092 20.1772C176.092 20.6567 176.06 21.0883 175.996 21.4719H166.286C166.366 22.431 166.701 23.1823 167.293 23.7258C167.884 24.2692 168.611 24.541 169.475 24.541C170.721 24.541 171.608 24.0055 172.136 22.9345H175.756C175.373 24.2133 174.638 25.2683 173.551 26.0995C172.464 26.9147 171.129 27.3223 169.546 27.3223C168.268 27.3223 167.117 27.0426 166.094 26.4831C165.087 25.9077 164.296 25.1004 163.72 24.0614C163.161 23.0224 162.881 21.8236 162.881 20.4649C162.881 19.0902 163.161 17.8834 163.72 16.8444C164.28 15.8054 165.063 15.0062 166.07 14.4467C167.077 13.8872 168.236 13.6075 169.546 13.6075C170.809 13.6075 171.936 13.8792 172.927 14.4227C173.934 14.9662 174.709 15.7414 175.253 16.7485C175.812 17.7395 176.092 18.8824 176.092 20.1772ZM172.616 19.2181C172.6 18.3549 172.288 17.6676 171.68 17.1561C171.073 16.6286 170.33 16.3648 169.451 16.3648C168.619 16.3648 167.916 16.6206 167.341 17.1321C166.781 17.6276 166.437 18.323 166.31 19.2181H172.616Z" fill="#00D9FF"/>
<path d="M182.666 27.3223C181.579 27.3223 180.604 27.1305 179.741 26.7469C178.878 26.3473 178.191 25.8118 177.679 25.1404C177.184 24.4691 176.912 23.7258 176.864 22.9106H180.245C180.309 23.4221 180.556 23.8457 180.988 24.1813C181.436 24.517 181.987 24.6848 182.642 24.6848C183.282 24.6848 183.777 24.557 184.129 24.3012C184.497 24.0455 184.68 23.7178 184.68 23.3182C184.68 22.8866 184.457 22.5669 184.009 22.3591C183.577 22.1353 182.882 21.8955 181.923 21.6398C180.932 21.4 180.117 21.1522 179.477 20.8965C178.854 20.6407 178.311 20.2491 177.847 19.7216C177.399 19.1941 177.176 18.4828 177.176 17.5877C177.176 16.8524 177.383 16.181 177.799 15.5736C178.231 14.9662 178.838 14.4867 179.621 14.135C180.421 13.7833 181.356 13.6075 182.427 13.6075C184.009 13.6075 185.272 14.0071 186.215 14.8063C187.158 15.5896 187.678 16.6526 187.773 17.9953H184.561C184.513 17.4678 184.289 17.0522 183.889 16.7485C183.506 16.4288 182.986 16.2689 182.331 16.2689C181.723 16.2689 181.252 16.3808 180.916 16.6046C180.596 16.8284 180.436 17.1401 180.436 17.5397C180.436 17.9873 180.66 18.331 181.108 18.5707C181.555 18.7945 182.251 19.0263 183.194 19.2661C184.153 19.5058 184.944 19.7536 185.568 20.0093C186.191 20.2651 186.726 20.6647 187.174 21.2082C187.638 21.7357 187.877 22.439 187.893 23.3182C187.893 24.0854 187.678 24.7728 187.246 25.3802C186.83 25.9876 186.223 26.4671 185.424 26.8188C184.64 27.1545 183.721 27.3223 182.666 27.3223Z" fill="#00D9FF"/>
<path d="M194.773 27.3223C193.686 27.3223 192.711 27.1305 191.848 26.7469C190.984 26.3473 190.297 25.8118 189.786 25.1404C189.29 24.4691 189.018 23.7258 188.97 22.9106H192.351C192.415 23.4221 192.663 23.8457 193.094 24.1813C193.542 24.517 194.093 24.6848 194.749 24.6848C195.388 24.6848 195.884 24.557 196.235 24.3012C196.603 24.0455 196.787 23.7178 196.787 23.3182C196.787 22.8866 196.563 22.5669 196.116 22.3591C195.684 22.1353 194.989 21.8955 194.03 21.6398C193.039 21.4 192.223 21.1522 191.584 20.8965C190.961 20.6407 190.417 20.2491 189.953 19.7216C189.506 19.1941 189.282 18.4828 189.282 17.5877C189.282 16.8524 189.49 16.181 189.906 15.5736C190.337 14.9662 190.945 14.4867 191.728 14.135C192.527 13.7833 193.462 13.6075 194.533 13.6075C196.116 13.6075 197.378 14.0071 198.321 14.8063C199.265 15.5896 199.784 16.6526 199.88 17.9953H196.667C196.619 17.4678 196.395 17.0522 195.996 16.7485C195.612 16.4288 195.093 16.2689 194.437 16.2689C193.83 16.2689 193.358 16.3808 193.023 16.6046C192.703 16.8284 192.543 17.1401 192.543 17.5397C192.543 17.9873 192.767 18.331 193.214 18.5707C193.662 18.7945 194.357 19.0263 195.3 19.2661C196.259 19.5058 197.051 19.7536 197.674 20.0093C198.297 20.2651 198.833 20.6647 199.28 21.2082C199.744 21.7357 199.984 22.439 200 23.3182C200 24.0854 199.784 24.7728 199.352 25.3802C198.937 25.9876 198.329 26.4671 197.53 26.8188C196.747 27.1545 195.828 27.3223 194.773 27.3223Z" fill="#00D9FF"/>
</svg>
