<svg width="150" height="22" viewBox="0 0 150 22" fill="none" xmlns="http://www.w3.org/2000/svg">
<path d="M27.9961 19.7821V0.588379H31.5058L40.5269 14.1063V0.588379H44.0366V19.7821H40.5269L31.5058 6.29166V19.7821H27.9961Z" fill="white"/>
<path d="M52.9124 20.1112C51.5414 20.1112 50.3258 19.8187 49.2656 19.2337C48.2054 18.6488 47.3736 17.8262 46.7704 16.766C46.1672 15.7057 45.8656 14.481 45.8656 13.0917C45.8656 11.6842 46.158 10.432 46.743 9.33524C47.3462 8.23846 48.1688 7.38845 49.2107 6.78521C50.271 6.1637 51.514 5.85295 52.9398 5.85295C54.2742 5.85295 55.4533 6.14542 56.4769 6.73038C57.5006 7.31533 58.2958 8.11964 58.8625 9.1433C59.4474 10.1487 59.7399 11.2729 59.7399 12.5159C59.7399 12.717 59.7307 12.9272 59.7125 13.1466C59.7125 13.3659 59.7033 13.5944 59.685 13.8321H49.3478C49.421 14.8923 49.7866 15.724 50.4446 16.3272C51.121 16.9305 51.9344 17.2321 52.885 17.2321C53.5979 17.2321 54.192 17.0767 54.6673 16.766C55.1608 16.4369 55.5264 16.0165 55.764 15.5047H59.3286C59.0727 16.3638 58.6431 17.1498 58.0399 17.8627C57.4549 18.5574 56.7237 19.1058 55.8463 19.5079C54.9871 19.9101 54.0092 20.1112 52.9124 20.1112ZM52.9398 8.70459C52.0807 8.70459 51.3221 8.95137 50.664 9.44492C50.0059 9.92019 49.5855 10.6514 49.4027 11.6385H56.1753C56.1205 10.7428 55.7915 10.0299 55.1882 9.49976C54.585 8.96965 53.8355 8.70459 52.9398 8.70459Z" fill="white"/>
<path d="M59.0949 19.7821L64.0304 12.9821L59.0949 6.18198H62.8514L66.3062 11.0078L69.7337 6.18198H73.5176L68.5546 12.9821L73.5176 19.7821H69.7337L66.3062 14.9563L62.8514 19.7821H59.0949Z" fill="white"/>
<path d="M80.4423 19.7821C79.0165 19.7821 77.874 19.4348 77.0149 18.7402C76.1557 18.0455 75.7262 16.8117 75.7262 15.0385V9.11588H73.3955V6.18198H75.7262L76.1375 2.53517H79.2359V6.18198H82.9101V9.11588H79.2359V15.0659C79.2359 15.724 79.373 16.181 79.6472 16.4369C79.9396 16.6746 80.4332 16.7934 81.1278 16.7934H82.8278V19.7821H80.4423Z" fill="white"/>
<path d="M84.5525 19.7821V6.18198H87.6509L87.9525 8.0191C88.3913 7.36103 88.9671 6.84005 89.68 6.45618C90.4112 6.05403 91.252 5.85295 92.2026 5.85295C94.3047 5.85295 95.7945 6.6664 96.672 8.29329C97.1655 7.54383 97.8236 6.94973 98.6462 6.51102C99.4871 6.07231 100.401 5.85295 101.388 5.85295C103.161 5.85295 104.523 6.38306 105.474 7.44329C106.424 8.50351 106.899 10.0573 106.899 12.1046V19.7821H103.39V12.4337C103.39 11.2638 103.161 10.368 102.704 9.74653C102.266 9.12502 101.58 8.81427 100.648 8.81427C99.6973 8.81427 98.9295 9.16158 98.3446 9.85621C97.7779 10.5508 97.4946 11.5197 97.4946 12.7627V19.7821H93.9849V12.4337C93.9849 11.2638 93.7564 10.368 93.2994 9.74653C92.8424 9.12502 92.1386 8.81427 91.1881 8.81427C90.2558 8.81427 89.4972 9.16158 88.9122 9.85621C88.3455 10.5508 88.0622 11.5197 88.0622 12.7627V19.7821H84.5525Z" fill="white"/>
<path d="M115.387 20.1112C114.07 20.1112 112.882 19.8095 111.822 19.2063C110.78 18.6031 109.948 17.7713 109.327 16.7111C108.724 15.6326 108.422 14.3896 108.422 12.9821C108.422 11.5745 108.733 10.3406 109.354 9.2804C109.976 8.2019 110.807 7.36103 111.849 6.7578C112.91 6.15456 114.098 5.85295 115.414 5.85295C116.712 5.85295 117.882 6.15456 118.924 6.7578C119.984 7.36103 120.816 8.2019 121.419 9.2804C122.04 10.3406 122.351 11.5745 122.351 12.9821C122.351 14.3896 122.04 15.6326 121.419 16.7111C120.816 17.7713 119.984 18.6031 118.924 19.2063C117.863 19.8095 116.684 20.1112 115.387 20.1112ZM115.387 17.0676C116.3 17.0676 117.096 16.7294 117.772 16.0531C118.448 15.3584 118.787 14.3348 118.787 12.9821C118.787 11.6293 118.448 10.6148 117.772 9.93847C117.096 9.24384 116.31 8.89653 115.414 8.89653C114.482 8.89653 113.677 9.24384 113.001 9.93847C112.343 10.6148 112.014 11.6293 112.014 12.9821C112.014 14.3348 112.343 15.3584 113.001 16.0531C113.677 16.7294 114.473 17.0676 115.387 17.0676Z" fill="white"/>
<path d="M127.123 19.7821L122.133 6.18198H125.807L129.262 16.4643L132.717 6.18198H136.391L131.373 19.7821H127.123Z" fill="white"/>
<path d="M143.172 20.1112C141.801 20.1112 140.586 19.8187 139.525 19.2337C138.465 18.6488 137.633 17.8262 137.03 16.766C136.427 15.7057 136.125 14.481 136.125 13.0917C136.125 11.6842 136.418 10.432 137.003 9.33524C137.606 8.23846 138.429 7.38845 139.471 6.78521C140.531 6.1637 141.774 5.85295 143.2 5.85295C144.534 5.85295 145.713 6.14542 146.737 6.73038C147.76 7.31533 148.556 8.11964 149.122 9.1433C149.707 10.1487 150 11.2729 150 12.5159C150 12.717 149.991 12.9272 149.972 13.1466C149.972 13.3659 149.963 13.5944 149.945 13.8321H139.608C139.681 14.8923 140.046 15.724 140.704 16.3272C141.381 16.9305 142.194 17.2321 143.145 17.2321C143.858 17.2321 144.452 17.0767 144.927 16.766C145.421 16.4369 145.786 16.0165 146.024 15.5047H149.588C149.333 16.3638 148.903 17.1498 148.3 17.8627C147.715 18.5574 146.984 19.1058 146.106 19.5079C145.247 19.9101 144.269 20.1112 143.172 20.1112ZM143.2 8.70459C142.341 8.70459 141.582 8.95137 140.924 9.44492C140.266 9.92019 139.845 10.6514 139.663 11.6385H146.435C146.38 10.7428 146.051 10.0299 145.448 9.49976C144.845 8.96965 144.095 8.70459 143.2 8.70459Z" fill="white"/>
<path d="M10.69 0.215256V8.89204C10.69 9.88238 9.88721 10.6852 8.89687 10.6852L0.220091 10.6852L0.220091 7.09887H4.56294L0 2.53592L2.53592 0L7.1037 4.56778L7.1037 0.215255L10.69 0.215256Z" fill="#90D8F6"/>
<path d="M21.2826 10.8082H12.6058C11.6154 10.8082 10.8126 11.611 10.8126 12.6013V21.2781L14.399 21.2781L14.399 16.9349L18.9622 21.4982L21.4982 18.9622L16.9304 14.3945H21.2826V10.8082Z" fill="#90D8F6"/>
</svg>
