<svg width="12" height="9" viewBox="0 0 12 9" fill="none" xmlns="http://www.w3.org/2000/svg">
<path d="M1.07733 9C0.770222 9 0.514 8.901 0.308667 8.703C0.103333 8.505 0.000444444 8.25771 0 7.96114V1.03886C0 0.742714 0.102889 0.495643 0.308667 0.297643C0.514444 0.0996427 0.770444 0.000428571 1.07667 0H3.95C4.09356 0 4.23311 0.0278572 4.36867 0.0835715C4.50422 0.140143 4.62022 0.214929 4.71667 0.307929L5.73067 1.28571H10.9233C11.23 1.28571 11.4862 1.38493 11.692 1.58336C11.8978 1.78179 12.0004 2.02886 12 2.32457V7.96179C12 8.2575 11.8973 8.50457 11.692 8.703C11.4867 8.90143 11.2304 9.00043 10.9233 9H1.07733ZM1.07733 8.35714H10.9233C11.0429 8.35714 11.1411 8.32007 11.218 8.24593C11.2949 8.17178 11.3333 8.07707 11.3333 7.96179V2.32393C11.3333 2.20864 11.2949 2.11393 11.218 2.03979C11.1411 1.96564 11.0429 1.92857 10.9233 1.92857H5.46333L4.244 0.754071C4.20133 0.712928 4.15644 0.684214 4.10933 0.667929C4.06311 0.651214 4.01467 0.642857 3.964 0.642857H1.07733C0.957778 0.642857 0.859555 0.679928 0.782666 0.754071C0.705778 0.828214 0.667111 0.923143 0.666667 1.03886V7.96179C0.666667 8.07707 0.705111 8.17178 0.782 8.24593C0.858889 8.32007 0.957333 8.35714 1.07733 8.35714Z" fill="white"/>
</svg>
