<svg width="12" height="12" viewBox="0 0 12 12" fill="none" xmlns="http://www.w3.org/2000/svg">
<path d="M11.6843 1.9437L6.14591 0.0246237C6.05116 -0.0082079 5.94873 -0.0082079 5.85399 0.0246237L0.315574 1.9437C0.223674 1.97554 0.143743 2.03664 0.0871051 2.11834C0.0304669 2.20003 -7.17817e-06 2.29818 1.26827e-09 2.39888V7.19656C1.26827e-09 7.32381 0.0486258 7.44584 0.13518 7.53581C0.221735 7.62579 0.339128 7.67633 0.461535 7.67633C0.583941 7.67633 0.701334 7.62579 0.787889 7.53581C0.874443 7.44584 0.923069 7.32381 0.923069 7.19656V3.06456L2.86094 3.73563C2.34607 4.6003 2.18235 5.64202 2.40571 6.63206C2.62908 7.6221 3.22127 8.47953 4.05227 9.01609C3.01382 9.43948 2.11614 10.2053 1.4596 11.2524C1.42546 11.3052 1.40174 11.3644 1.38983 11.4268C1.37792 11.4892 1.37805 11.5534 1.39022 11.6157C1.40239 11.678 1.42636 11.7372 1.46072 11.7898C1.49508 11.8424 1.53916 11.8873 1.59039 11.9221C1.64162 11.9568 1.69898 11.9806 1.75914 11.9921C1.8193 12.0036 1.88106 12.0025 1.94082 11.989C2.00058 11.9755 2.05716 11.9497 2.10726 11.9132C2.15736 11.8768 2.19999 11.8303 2.23267 11.7766C3.10209 10.39 4.47515 9.59541 5.99995 9.59541C7.52474 9.59541 8.89781 10.39 9.76722 11.7766C9.83492 11.8811 9.93949 11.9538 10.0583 11.9789C10.1772 12.004 10.3007 11.9794 10.4023 11.9106C10.5039 11.8417 10.5753 11.7341 10.6011 11.6109C10.6269 11.4877 10.6051 11.359 10.5403 11.2524C9.88376 10.2053 8.98261 9.43948 7.94762 9.01609C8.77783 8.47955 9.36946 7.62268 9.59279 6.63336C9.81612 5.64405 9.65291 4.60304 9.13896 3.73863L11.6843 2.85706C11.7762 2.82523 11.8562 2.76414 11.9129 2.68244C11.9695 2.60075 12 2.50259 12 2.40188C12 2.30116 11.9695 2.20301 11.9129 2.12131C11.8562 2.03961 11.7762 1.97852 11.6843 1.9467V1.9437ZM8.76916 5.75726C8.76928 6.21235 8.6656 6.66099 8.46663 7.06637C8.26765 7.47175 7.97906 7.82231 7.62451 8.08929C7.26996 8.35627 6.85958 8.53206 6.42702 8.60225C5.99446 8.67243 5.55205 8.63501 5.1361 8.49304C4.72015 8.35108 4.3425 8.10862 4.03415 7.78556C3.7258 7.46249 3.49553 7.06804 3.36223 6.63455C3.22893 6.20107 3.1964 5.74091 3.26731 5.29182C3.33822 4.84274 3.51055 4.41753 3.77016 4.05108L5.85399 4.77073C5.94873 4.80357 6.05116 4.80357 6.14591 4.77073L8.22974 4.05108C8.58034 4.54526 8.76939 5.14322 8.76916 5.75726ZM5.99995 3.8124L1.92114 2.39888L5.99995 0.98536L10.0788 2.39888L5.99995 3.8124Z" fill="white"/>
</svg>
