<svg width="30" height="24" viewBox="0 0 30 24" fill="none" xmlns="http://www.w3.org/2000/svg">
<path d="M1.21212 5.06056e-05C0.890647 5.06056e-05 0.582339 0.126479 0.355022 0.351522C0.127705 0.576565 0 0.881789 0 1.20005C0 1.51831 0.127705 1.82353 0.355022 2.04857C0.582339 2.27362 0.890647 2.40005 1.21212 2.40005H3.90303L7.08364 15C7.35394 16.068 8.32 16.8 9.43152 16.8H24.5467C25.6412 16.8 26.5709 16.08 26.8582 15.036L30 3.60004H27.4618L24.5455 14.4H9.4303L6.25091 1.80005C6.11957 1.28312 5.81682 0.824783 5.39113 0.498426C4.96543 0.172069 4.44143 -0.00342351 3.90303 5.06056e-05H1.21212ZM23.0303 16.8C21.0364 16.8 19.3939 18.426 19.3939 20.4C19.3939 22.374 21.0364 24 23.0303 24C25.0242 24 26.6667 22.374 26.6667 20.4C26.6667 18.426 25.0242 16.8 23.0303 16.8ZM12.1212 16.8C10.1273 16.8 8.48485 18.426 8.48485 20.4C8.48485 22.374 10.1273 24 12.1212 24C14.1152 24 15.7576 22.374 15.7576 20.4C15.7576 18.426 14.1152 16.8 12.1212 16.8ZM15.7576 5.06056e-05V6.00004H12.1212L16.9697 10.8L21.8182 6.00004H18.1818V5.06056e-05H15.7576ZM12.1212 19.2C12.8048 19.2 13.3333 19.7232 13.3333 20.4C13.3333 21.0768 12.8048 21.6 12.1212 21.6C11.4376 21.6 10.9091 21.0768 10.9091 20.4C10.9091 19.7232 11.4376 19.2 12.1212 19.2ZM23.0303 19.2C23.7139 19.2 24.2424 19.7232 24.2424 20.4C24.2424 21.0768 23.7139 21.6 23.0303 21.6C22.3467 21.6 21.8182 21.0768 21.8182 20.4C21.8182 19.7232 22.3467 19.2 23.0303 19.2Z" fill="white"/>
</svg>
