<svg width="30" height="30" viewBox="0 0 30 30" fill="none" xmlns="http://www.w3.org/2000/svg">
<path d="M10.7143 11.7857H25.9286L23.1429 14.5714L24.6429 16.0714L30 10.7143L24.6429 5.35714L23.1429 6.85714L25.9286 9.64286H10.7143V11.7857ZM27.8571 18.2143H13.7143L16.5 15.4286L15 13.9286L9.64286 19.2857L15 24.6429L16.5 23.1429L13.7143 20.3571H27.8571V18.2143ZM21.4286 5.35714V2.14286C21.4286 0.964286 20.4643 0 19.2857 0H2.14286C0.964286 0 0 0.964286 0 2.14286V27.8571C0 29.0357 0.964286 30 2.14286 30H19.2857C20.4643 30 21.4286 29.0357 21.4286 27.8571V24.6429H19.2857V27.8571H2.14286V2.14286H19.2857V5.35714H21.4286Z" fill="white"/>
</svg>
