<svg width="30" height="31" viewBox="0 0 30 31" fill="none" xmlns="http://www.w3.org/2000/svg">
<path d="M19.1816 29.3337L12.6598 22.7463L14.8082 20.5762L19.1816 24.9937L27.8517 16.2362L30 18.4062L19.1816 29.3337ZM27.6215 13.95H24.5524V6.2H21.4834V10.85H6.13811V6.2H3.06905V27.9H12.2762V31H3.06905C2.22506 31 1.50281 30.6967 0.902302 30.0901C0.30179 29.4836 0.00102302 28.7535 0 27.9V6.2C0 5.3475 0.300767 4.61797 0.902302 4.0114C1.50384 3.40483 2.22609 3.10103 3.06905 3.1H9.4757C9.75703 2.19583 10.3069 1.45338 11.1253 0.87265C11.9437 0.291917 12.8389 0.00103333 13.8107 0C14.8338 0 15.7483 0.290883 16.5545 0.87265C17.3606 1.45442 17.9038 2.19687 18.1841 3.1H24.5524C25.3964 3.1 26.1192 3.4038 26.7207 4.0114C27.3223 4.619 27.6225 5.34853 27.6215 6.2V13.95ZM14.9049 5.75515C15.1985 5.45755 15.3453 5.08917 15.3453 4.65C15.3453 4.21083 15.198 3.84297 14.9033 3.5464C14.6087 3.24983 14.2445 3.10103 13.8107 3.1C13.377 3.09897 13.0128 3.24777 12.7182 3.5464C12.4235 3.84503 12.2762 4.2129 12.2762 4.65C12.2762 5.0871 12.4235 5.45548 12.7182 5.75515C13.0128 6.05482 13.377 6.2031 13.8107 6.2C14.2445 6.1969 14.6092 6.04965 14.9049 5.75515Z" fill="white"/>
</svg>
