<svg width="40" height="33" viewBox="0 0 40 33" fill="none" xmlns="http://www.w3.org/2000/svg">
<path fill-rule="evenodd" clip-rule="evenodd" d="M18.3173 0.263517C19.2721 -0.0429165 20.2925 -0.0829188 21.2684 0.147822L21.6816 0.263517L33.6808 4.11266C34.0298 4.22836 34.3438 4.44506 34.5733 4.74806L34.7019 4.94089L39.7521 13.6584C39.8798 13.8786 39.9604 14.123 39.9886 14.3759C40.0169 14.6289 39.9923 14.8851 39.9163 15.128C39.8403 15.371 39.7146 15.5955 39.5473 15.7873C39.3799 15.9791 39.1745 16.1341 38.944 16.2422L38.7237 16.3286L34.9571 17.5369V25.4886C34.9569 26.2156 34.7409 26.9262 34.3365 27.5303C33.9321 28.1345 33.3575 28.605 32.6855 28.8823L32.4064 28.9852L21.6816 32.423C20.7268 32.7294 19.7064 32.7694 18.7305 32.5387L18.3173 32.4248L7.59257 28.9852C6.90018 28.7628 6.28937 28.34 5.83755 27.7701C5.38574 27.2003 5.11326 26.5092 5.05463 25.7843L5.04178 25.4868V17.5369L1.27527 16.3286C1.03304 16.2508 0.809613 16.1236 0.619137 15.955C0.428662 15.7864 0.275299 15.58 0.16877 15.349C0.0622419 15.118 0.00487178 14.8673 0.000296994 14.613C-0.00427779 14.3586 0.0440427 14.1061 0.142195 13.8714L0.246871 13.6584L5.29704 4.94089C5.48633 4.61427 5.77169 4.35393 6.11425 4.1953L6.31626 4.11266L18.3173 0.263517ZM21.8359 16.9034V28.5169L31.2843 25.4868V18.7159L25.6097 20.5358C25.2458 20.6525 24.8546 20.6528 24.4905 20.5366C24.1264 20.4204 23.8077 20.1935 23.5787 19.8875L23.4611 19.7076L21.8359 16.9034ZM18.163 16.9034L16.5378 19.7076C16.3278 20.0699 16.0002 20.3496 15.6094 20.5003C15.2186 20.6509 14.7881 20.6635 14.3892 20.5358L8.71463 18.7159V25.4868L18.163 28.5187V16.9034ZM7.73214 8.06097L4.56798 13.528L14.1009 16.5875L17.2687 11.1205L7.73214 8.06097ZM32.2668 8.06097L22.7302 11.1205L25.8962 16.5875L35.4309 13.528L32.2668 8.06097ZM20.5596 3.76007C20.2689 3.66722 19.9596 3.64829 19.6597 3.70498L19.4394 3.76007L12.8925 5.86094L19.9995 8.13994L27.1064 5.86094L20.5596 3.76007Z" fill="white"/>
</svg>
